{
	"asset":{
		"generator":"Khronos glTF Blender I/O v4.1.62",
		"version":"2.0"
	},
	"extensionsUsed":[
		"KHR_materials_specular",
		"KHR_materials_ior"
	],
	"scene":0,
	"scenes":[
		{
			"name":"Scene",
			"nodes":[
				9
			]
		}
	],
	"nodes":[
		{
			"mesh":0,
			"name":"AV-7Sprocket",
			"translation":[
				0,
				0.2031078338623047,
				-4.339347839355469
			]
		},
		{
			"mesh":1,
			"name":"AV-7Trackmill01",
			"translation":[
				1.6684448719024658,
				-0.05539949610829353,
				-2.848823070526123
			]
		},
		{
			"mesh":2,
			"name":"AV-7Trackmill02",
			"translation":[
				0,
				0.026692790910601616,
				1.670616865158081
			]
		},
		{
			"mesh":3,
			"name":"AV-7Trackmill02.001",
			"translation":[
				0,
				0.026692790910601616,
				-0.5976705551147461
			]
		},
		{
			"mesh":4,
			"name":"AV-7Tracks",
			"rotation":[
				0,
				-1,
				0,
				1.9470718370939721e-07
			]
		},
		{
			"mesh":5,
			"name":"Gun01"
		},
		{
			"children":[
				5
			],
			"mesh":6,
			"name":"Turret.Vertical",
			"translation":[
				0,
				-2.3144898414611816,
				-7.750518798828125
			]
		},
		{
			"children":[
				6
			],
			"mesh":7,
			"name":"AV-7Turret.Horizontal",
			"translation":[
				0,
				2.3144898414611816,
				4.189192295074463
			]
		},
		{
			"mesh":8,
			"name":"AV-7WheelFront",
			"translation":[
				0,
				0.2713621258735657,
				3.672060489654541
			]
		},
		{
			"children":[
				0,
				1,
				2,
				3,
				4,
				7,
				8
			],
			"mesh":9,
			"name":"AV-7Chasis"
		}
	],
	"materials":[
		{
			"doubleSided":true,
			"extensions":{
				"KHR_materials_specular":{
					"specularFactor":0.30000001192092896
				},
				"KHR_materials_ior":{
					"ior":1.4500000476837158
				}
			},
			"name":"Material",
			"pbrMetallicRoughness":{
				"metallicFactor":0,
				"roughnessFactor":0.5
			}
		}
	],
	"meshes":[
		{
			"name":"Circle.002",
			"primitives":[
				{
					"attributes":{
						"POSITION":0,
						"NORMAL":1,
						"TEXCOORD_0":2
					},
					"indices":3,
					"material":0
				}
			]
		},
		{
			"name":"Circle.003",
			"primitives":[
				{
					"attributes":{
						"POSITION":4,
						"NORMAL":5,
						"TEXCOORD_0":6,
						"TANGENT":7
					},
					"indices":8,
					"material":0
				}
			]
		},
		{
			"name":"Circle.010",
			"primitives":[
				{
					"attributes":{
						"POSITION":9,
						"NORMAL":10,
						"TEXCOORD_0":11,
						"TANGENT":12
					},
					"indices":13,
					"material":0
				}
			]
		},
		{
			"name":"Circle.001",
			"primitives":[
				{
					"attributes":{
						"POSITION":14,
						"NORMAL":15,
						"TEXCOORD_0":16,
						"TANGENT":17
					},
					"indices":13,
					"material":0
				}
			]
		},
		{
			"name":"Cube",
			"primitives":[
				{
					"attributes":{
						"POSITION":18,
						"NORMAL":19,
						"TEXCOORD_0":20,
						"TANGENT":21
					},
					"indices":22,
					"material":0
				}
			]
		},
		{
			"name":"Circle.004",
			"primitives":[
				{
					"attributes":{
						"POSITION":23,
						"NORMAL":24,
						"TEXCOORD_0":25
					},
					"indices":26,
					"material":0
				}
			]
		},
		{
			"name":"Circle.006",
			"primitives":[
				{
					"attributes":{
						"POSITION":27,
						"NORMAL":28,
						"TEXCOORD_0":29,
						"TANGENT":30
					},
					"indices":31,
					"material":0
				}
			]
		},
		{
			"name":"Circle.005",
			"primitives":[
				{
					"attributes":{
						"POSITION":32,
						"NORMAL":33,
						"TEXCOORD_0":34,
						"TANGENT":35
					},
					"indices":36,
					"material":0
				}
			]
		},
		{
			"name":"Circle.014",
			"primitives":[
				{
					"attributes":{
						"POSITION":37,
						"NORMAL":38,
						"TEXCOORD_0":39,
						"TANGENT":40
					},
					"indices":41,
					"material":0
				}
			]
		},
		{
			"name":"Cube.001",
			"primitives":[
				{
					"attributes":{
						"POSITION":42,
						"NORMAL":43,
						"TEXCOORD_0":44
					},
					"indices":45,
					"material":0
				}
			]
		}
	],
	"accessors":[
		{
			"bufferView":0,
			"componentType":5126,
			"count":72,
			"max":[
				1.3600008487701416,
				0.46342480182647705,
				0.5351161956787109
			],
			"min":[
				-1.3600008487701416,
				-0.4634247124195099,
				-0.5351166725158691
			],
			"type":"VEC3"
		},
		{
			"bufferView":1,
			"componentType":5126,
			"count":72,
			"type":"VEC3"
		},
		{
			"bufferView":2,
			"componentType":5126,
			"count":72,
			"type":"VEC2"
		},
		{
			"bufferView":3,
			"componentType":5123,
			"count":120,
			"type":"SCALAR"
		},
		{
			"bufferView":4,
			"componentType":5126,
			"count":144,
			"max":[
				0.2905552387237549,
				0.6648262143135071,
				1.1085855960845947
			],
			"min":[
				-0.2874445915222168,
				-0.48378506302833557,
				-1.098379135131836
			],
			"type":"VEC3"
		},
		{
			"bufferView":5,
			"componentType":5126,
			"count":144,
			"type":"VEC3"
		},
		{
			"bufferView":6,
			"componentType":5126,
			"count":144,
			"type":"VEC2"
		},
		{
			"bufferView":7,
			"componentType":5126,
			"count":144,
			"type":"VEC4"
		},
		{
			"bufferView":8,
			"componentType":5123,
			"count":228,
			"type":"SCALAR"
		},
		{
			"bufferView":9,
			"componentType":5126,
			"count":168,
			"max":[
				1.9590001106262207,
				0.5827339291572571,
				1.117037057876587
			],
			"min":[
				1.381000280380249,
				-0.565877377986908,
				-1.0899271965026855
			],
			"type":"VEC3"
		},
		{
			"bufferView":10,
			"componentType":5126,
			"count":168,
			"type":"VEC3"
		},
		{
			"bufferView":11,
			"componentType":5126,
			"count":168,
			"type":"VEC2"
		},
		{
			"bufferView":12,
			"componentType":5126,
			"count":168,
			"type":"VEC4"
		},
		{
			"bufferView":13,
			"componentType":5123,
			"count":264,
			"type":"SCALAR"
		},
		{
			"bufferView":14,
			"componentType":5126,
			"count":168,
			"max":[
				1.9590001106262207,
				0.5827339291572571,
				1.1170368194580078
			],
			"min":[
				1.381000280380249,
				-0.565877377986908,
				-1.0899274349212646
			],
			"type":"VEC3"
		},
		{
			"bufferView":15,
			"componentType":5126,
			"count":168,
			"type":"VEC3"
		},
		{
			"bufferView":16,
			"componentType":5126,
			"count":168,
			"type":"VEC2"
		},
		{
			"bufferView":17,
			"componentType":5126,
			"count":168,
			"type":"VEC4"
		},
		{
			"bufferView":18,
			"componentType":5126,
			"count":284,
			"max":[
				1.979999303817749,
				0.879417896270752,
				4.995201587677002
			],
			"min":[
				-1.980001449584961,
				-0.6105724573135376,
				-3.987323760986328
			],
			"type":"VEC3"
		},
		{
			"bufferView":19,
			"componentType":5126,
			"count":284,
			"type":"VEC3"
		},
		{
			"bufferView":20,
			"componentType":5126,
			"count":284,
			"type":"VEC2"
		},
		{
			"bufferView":21,
			"componentType":5126,
			"count":284,
			"type":"VEC4"
		},
		{
			"bufferView":22,
			"componentType":5123,
			"count":432,
			"type":"SCALAR"
		},
		{
			"bufferView":23,
			"componentType":5126,
			"count":90,
			"max":[
				0.08101256936788559,
				2.35044002532959,
				9.301313400268555
			],
			"min":[
				-0.08101285248994827,
				2.1884145736694336,
				8.150665283203125
			],
			"type":"VEC3"
		},
		{
			"bufferView":24,
			"componentType":5126,
			"count":90,
			"type":"VEC3"
		},
		{
			"bufferView":25,
			"componentType":5126,
			"count":90,
			"type":"VEC2"
		},
		{
			"bufferView":26,
			"componentType":5123,
			"count":162,
			"type":"SCALAR"
		},
		{
			"bufferView":27,
			"componentType":5126,
			"count":38,
			"max":[
				0.11999974399805069,
				2.7129323482513428,
				8.329665184020996
			],
			"min":[
				-0.12000023573637009,
				1.8259226083755493,
				7.5725555419921875
			],
			"type":"VEC3"
		},
		{
			"bufferView":28,
			"componentType":5126,
			"count":38,
			"type":"VEC3"
		},
		{
			"bufferView":29,
			"componentType":5126,
			"count":38,
			"type":"VEC2"
		},
		{
			"bufferView":30,
			"componentType":5126,
			"count":38,
			"type":"VEC4"
		},
		{
			"bufferView":31,
			"componentType":5123,
			"count":66,
			"type":"SCALAR"
		},
		{
			"bufferView":32,
			"componentType":5126,
			"count":24,
			"max":[
				0.3984459638595581,
				0.3948495388031006,
				0.39844608306884766
			],
			"min":[
				-0.3984459638595581,
				-0.3948495388031006,
				-0.28174400329589844
			],
			"type":"VEC3"
		},
		{
			"bufferView":33,
			"componentType":5126,
			"count":24,
			"type":"VEC3"
		},
		{
			"bufferView":34,
			"componentType":5126,
			"count":24,
			"type":"VEC2"
		},
		{
			"bufferView":35,
			"componentType":5126,
			"count":24,
			"type":"VEC4"
		},
		{
			"bufferView":36,
			"componentType":5123,
			"count":36,
			"type":"SCALAR"
		},
		{
			"bufferView":37,
			"componentType":5126,
			"count":72,
			"max":[
				1.7999999523162842,
				0.5105709433555603,
				0.4421677589416504
			],
			"min":[
				-1.7999999523162842,
				-0.5105710029602051,
				-0.4421677589416504
			],
			"type":"VEC3"
		},
		{
			"bufferView":38,
			"componentType":5126,
			"count":72,
			"type":"VEC3"
		},
		{
			"bufferView":39,
			"componentType":5126,
			"count":72,
			"type":"VEC2"
		},
		{
			"bufferView":40,
			"componentType":5126,
			"count":72,
			"type":"VEC4"
		},
		{
			"bufferView":41,
			"componentType":5123,
			"count":120,
			"type":"SCALAR"
		},
		{
			"bufferView":42,
			"componentType":5126,
			"count":370,
			"max":[
				2.3199996948242188,
				4.3921074867248535,
				4.5876383781433105
			],
			"min":[
				-2.320000171661377,
				-0.17873820662498474,
				-6.187020301818848
			],
			"type":"VEC3"
		},
		{
			"bufferView":43,
			"componentType":5126,
			"count":370,
			"type":"VEC3"
		},
		{
			"bufferView":44,
			"componentType":5126,
			"count":370,
			"type":"VEC2"
		},
		{
			"bufferView":45,
			"componentType":5123,
			"count":576,
			"type":"SCALAR"
		}
	],
	"bufferViews":[
		{
			"buffer":0,
			"byteLength":864,
			"byteOffset":0,
			"target":34962
		},
		{
			"buffer":0,
			"byteLength":864,
			"byteOffset":864,
			"target":34962
		},
		{
			"buffer":0,
			"byteLength":576,
			"byteOffset":1728,
			"target":34962
		},
		{
			"buffer":0,
			"byteLength":240,
			"byteOffset":2304,
			"target":34963
		},
		{
			"buffer":0,
			"byteLength":1728,
			"byteOffset":2544,
			"target":34962
		},
		{
			"buffer":0,
			"byteLength":1728,
			"byteOffset":4272,
			"target":34962
		},
		{
			"buffer":0,
			"byteLength":1152,
			"byteOffset":6000,
			"target":34962
		},
		{
			"buffer":0,
			"byteLength":2304,
			"byteOffset":7152,
			"target":34962
		},
		{
			"buffer":0,
			"byteLength":456,
			"byteOffset":9456,
			"target":34963
		},
		{
			"buffer":0,
			"byteLength":2016,
			"byteOffset":9912,
			"target":34962
		},
		{
			"buffer":0,
			"byteLength":2016,
			"byteOffset":11928,
			"target":34962
		},
		{
			"buffer":0,
			"byteLength":1344,
			"byteOffset":13944,
			"target":34962
		},
		{
			"buffer":0,
			"byteLength":2688,
			"byteOffset":15288,
			"target":34962
		},
		{
			"buffer":0,
			"byteLength":528,
			"byteOffset":17976,
			"target":34963
		},
		{
			"buffer":0,
			"byteLength":2016,
			"byteOffset":18504,
			"target":34962
		},
		{
			"buffer":0,
			"byteLength":2016,
			"byteOffset":20520,
			"target":34962
		},
		{
			"buffer":0,
			"byteLength":1344,
			"byteOffset":22536,
			"target":34962
		},
		{
			"buffer":0,
			"byteLength":2688,
			"byteOffset":23880,
			"target":34962
		},
		{
			"buffer":0,
			"byteLength":3408,
			"byteOffset":26568,
			"target":34962
		},
		{
			"buffer":0,
			"byteLength":3408,
			"byteOffset":29976,
			"target":34962
		},
		{
			"buffer":0,
			"byteLength":2272,
			"byteOffset":33384,
			"target":34962
		},
		{
			"buffer":0,
			"byteLength":4544,
			"byteOffset":35656,
			"target":34962
		},
		{
			"buffer":0,
			"byteLength":864,
			"byteOffset":40200,
			"target":34963
		},
		{
			"buffer":0,
			"byteLength":1080,
			"byteOffset":41064,
			"target":34962
		},
		{
			"buffer":0,
			"byteLength":1080,
			"byteOffset":42144,
			"target":34962
		},
		{
			"buffer":0,
			"byteLength":720,
			"byteOffset":43224,
			"target":34962
		},
		{
			"buffer":0,
			"byteLength":324,
			"byteOffset":43944,
			"target":34963
		},
		{
			"buffer":0,
			"byteLength":456,
			"byteOffset":44268,
			"target":34962
		},
		{
			"buffer":0,
			"byteLength":456,
			"byteOffset":44724,
			"target":34962
		},
		{
			"buffer":0,
			"byteLength":304,
			"byteOffset":45180,
			"target":34962
		},
		{
			"buffer":0,
			"byteLength":608,
			"byteOffset":45484,
			"target":34962
		},
		{
			"buffer":0,
			"byteLength":132,
			"byteOffset":46092,
			"target":34963
		},
		{
			"buffer":0,
			"byteLength":288,
			"byteOffset":46224,
			"target":34962
		},
		{
			"buffer":0,
			"byteLength":288,
			"byteOffset":46512,
			"target":34962
		},
		{
			"buffer":0,
			"byteLength":192,
			"byteOffset":46800,
			"target":34962
		},
		{
			"buffer":0,
			"byteLength":384,
			"byteOffset":46992,
			"target":34962
		},
		{
			"buffer":0,
			"byteLength":72,
			"byteOffset":47376,
			"target":34963
		},
		{
			"buffer":0,
			"byteLength":864,
			"byteOffset":47448,
			"target":34962
		},
		{
			"buffer":0,
			"byteLength":864,
			"byteOffset":48312,
			"target":34962
		},
		{
			"buffer":0,
			"byteLength":576,
			"byteOffset":49176,
			"target":34962
		},
		{
			"buffer":0,
			"byteLength":1152,
			"byteOffset":49752,
			"target":34962
		},
		{
			"buffer":0,
			"byteLength":240,
			"byteOffset":50904,
			"target":34963
		},
		{
			"buffer":0,
			"byteLength":4440,
			"byteOffset":51144,
			"target":34962
		},
		{
			"buffer":0,
			"byteLength":4440,
			"byteOffset":55584,
			"target":34962
		},
		{
			"buffer":0,
			"byteLength":2960,
			"byteOffset":60024,
			"target":34962
		},
		{
			"buffer":0,
			"byteLength":1152,
			"byteOffset":62984,
			"target":34963
		}
	],
	"buffers":[
		{
			"byteLength":64136,
			"uri":"AV-7-340603dd377550a63d3ca0457f7a461f.bin"
		}
	]
}
