{
	"asset":{
		"generator":"Khronos glTF Blender I/O v4.1.62",
		"version":"2.0"
	},
	"extensionsUsed":[
		"KHR_materials_specular",
		"KHR_materials_ior"
	],
	"scene":0,
	"scenes":[
		{
			"name":"Scene",
			"nodes":[
				5
			]
		}
	],
	"nodes":[
		{
			"name":"Handle",
			"rotation":[
				0.007241659797728062,
				0.0023985945153981447,
				-0.9492526650428772,
				0.314422070980072
			],
			"scale":[
				0.9999998807907104,
				1,
				1
			],
			"translation":[
				-0.05498097836971283,
				3.3168740272521973,
				-2.4959444999694824e-07
			]
		},
		{
			"name":"pinswing",
			"rotation":[
				-0.5218281745910645,
				0.7129453420639038,
				0.28681057691574097,
				0.3703296482563019
			],
			"scale":[
				0.9999998807907104,
				0.9999999403953552,
				1
			],
			"translation":[
				5.519630974504253e-09,
				0.582758903503418,
				-1.1971438595992367e-07
			]
		},
		{
			"children":[
				1
			],
			"name":"pinpull",
			"rotation":[
				-4.1450130083831027e-07,
				-0.7071067690849304,
				0.7071067690849304,
				5.591472245214391e-07
			],
			"translation":[
				0.09376323968172073,
				2.3994250297546387,
				0.2637590765953064
			]
		},
		{
			"children":[
				0,
				2
			],
			"name":"Grenade",
			"translation":[
				0.06923054903745651,
				-1.3819609880447388,
				0.008776400238275528
			]
		},
		{
			"extras":{
				"ant_landscape":{}
			},
			"mesh":0,
			"name":"Cylinder.001",
			"skin":0
		},
		{
			"children":[
				4,
				3
			],
			"name":"Armature",
			"scale":[
				0.8363873362541199,
				0.8363873362541199,
				0.8363873362541199
			],
			"translation":[
				-0.13601908087730408,
				0.23021230101585388,
				0
			]
		}
	],
	"materials":[
		{
			"doubleSided":true,
			"extensions":{
				"KHR_materials_specular":{
					"specularFactor":0
				},
				"KHR_materials_ior":{
					"ior":1.4500000476837158
				}
			},
			"name":"Material",
			"pbrMetallicRoughness":{
				"baseColorFactor":[
					0.039602067321538925,
					0.04445463418960571,
					0.03322566673159599,
					1
				],
				"metallicFactor":0,
				"roughnessFactor":0.5
			}
		},
		{
			"doubleSided":true,
			"extensions":{
				"KHR_materials_specular":{
					"specularFactor":0
				},
				"KHR_materials_ior":{
					"ior":1.4500000476837158
				}
			},
			"name":"Material.001",
			"pbrMetallicRoughness":{
				"baseColorFactor":[
					0.03967954218387604,
					0.03967954218387604,
					0.03967954218387604,
					1
				],
				"metallicFactor":0,
				"roughnessFactor":0.5
			}
		}
	],
	"meshes":[
		{
			"name":"Cylinder.001",
			"primitives":[
				{
					"attributes":{
						"POSITION":0,
						"NORMAL":1,
						"TEXCOORD_0":2,
						"JOINTS_0":3,
						"WEIGHTS_0":4
					},
					"indices":5,
					"material":0
				},
				{
					"attributes":{
						"POSITION":6,
						"NORMAL":7,
						"TEXCOORD_0":8,
						"JOINTS_0":9,
						"WEIGHTS_0":10
					},
					"indices":11,
					"material":1
				}
			]
		}
	],
	"skins":[
		{
			"inverseBindMatrices":12,
			"joints":[
				3,
				0,
				2,
				1
			],
			"name":"Armature"
		}
	],
	"accessors":[
		{
			"bufferView":0,
			"componentType":5126,
			"count":444,
			"max":[
				0.7616689205169678,
				0.7444279789924622,
				0.8369227051734924
			],
			"min":[
				-0.9121766686439514,
				-1.9998419284820557,
				-0.8369228839874268
			],
			"type":"VEC3"
		},
		{
			"bufferView":1,
			"componentType":5126,
			"count":444,
			"type":"VEC3"
		},
		{
			"bufferView":2,
			"componentType":5126,
			"count":444,
			"type":"VEC2"
		},
		{
			"bufferView":3,
			"componentType":5121,
			"count":444,
			"type":"VEC4"
		},
		{
			"bufferView":4,
			"componentType":5126,
			"count":444,
			"type":"VEC4"
		},
		{
			"bufferView":5,
			"componentType":5123,
			"count":720,
			"type":"SCALAR"
		},
		{
			"bufferView":6,
			"componentType":5126,
			"count":152,
			"max":[
				0.23263581097126007,
				2.0416219234466553,
				0.26664039492607117
			],
			"min":[
				-0.3831440508365631,
				0.7326337695121765,
				-0.26664063334465027
			],
			"type":"VEC3"
		},
		{
			"bufferView":7,
			"componentType":5126,
			"count":152,
			"type":"VEC3"
		},
		{
			"bufferView":8,
			"componentType":5126,
			"count":152,
			"type":"VEC2"
		},
		{
			"bufferView":9,
			"componentType":5121,
			"count":152,
			"type":"VEC4"
		},
		{
			"bufferView":10,
			"componentType":5126,
			"count":152,
			"type":"VEC4"
		},
		{
			"bufferView":11,
			"componentType":5123,
			"count":330,
			"type":"SCALAR"
		},
		{
			"bufferView":12,
			"componentType":5126,
			"count":4,
			"type":"MAT4"
		}
	],
	"bufferViews":[
		{
			"buffer":0,
			"byteLength":5328,
			"byteOffset":0,
			"target":34962
		},
		{
			"buffer":0,
			"byteLength":5328,
			"byteOffset":5328,
			"target":34962
		},
		{
			"buffer":0,
			"byteLength":3552,
			"byteOffset":10656,
			"target":34962
		},
		{
			"buffer":0,
			"byteLength":1776,
			"byteOffset":14208,
			"target":34962
		},
		{
			"buffer":0,
			"byteLength":7104,
			"byteOffset":15984,
			"target":34962
		},
		{
			"buffer":0,
			"byteLength":1440,
			"byteOffset":23088,
			"target":34963
		},
		{
			"buffer":0,
			"byteLength":1824,
			"byteOffset":24528,
			"target":34962
		},
		{
			"buffer":0,
			"byteLength":1824,
			"byteOffset":26352,
			"target":34962
		},
		{
			"buffer":0,
			"byteLength":1216,
			"byteOffset":28176,
			"target":34962
		},
		{
			"buffer":0,
			"byteLength":608,
			"byteOffset":29392,
			"target":34962
		},
		{
			"buffer":0,
			"byteLength":2432,
			"byteOffset":30000,
			"target":34962
		},
		{
			"buffer":0,
			"byteLength":660,
			"byteOffset":32432,
			"target":34963
		},
		{
			"buffer":0,
			"byteLength":256,
			"byteOffset":33092
		}
	],
	"buffers":[
		{
			"byteLength":33348,
			"uri":"F1_grenade%20-e699be0e335bbcf58a3478878d8a480a.bin"
		}
	]
}
