{
	"asset":{
		"generator":"Khronos glTF Blender I/O v4.1.62",
		"version":"2.0"
	},
	"extensionsUsed":[
		"KHR_materials_sheen"
	],
	"scene":0,
	"scenes":[
		{
			"extras":{
				"lk_quick_theme_props":{},
				"uv_toolkit":{},
				"CC3ImportProps":{}
			},
			"name":"Scene",
			"nodes":[
				0,
				1,
				2
			]
		}
	],
	"nodes":[
		{
			"mesh":0,
			"name":"godot_plush_01",
			"translation":[
				0.20000000298023224,
				0,
				0
			]
		},
		{
			"mesh":1,
			"name":"godot_plush_sitted"
		},
		{
			"mesh":2,
			"name":"godot_plush_02",
			"translation":[
				-0.20000000298023224,
				0,
				0
			]
		}
	],
	"materials":[
		{
			"doubleSided":true,
			"extensions":{
				"KHR_materials_sheen":{
					"sheenColorFactor":[
						1.0,
						1.0,
						1.0
					],
					"sheenRoughnessFactor":0.4000000059604645
				}
			},
			"name":"godot_plush",
			"normalTexture":{
				"index":0,
				"scale":0.800000011920929
			},
			"pbrMetallicRoughness":{
				"baseColorTexture":{
					"index":1
				},
				"metallicFactor":0,
				"metallicRoughnessTexture":{
					"index":2
				}
			}
		}
	],
	"meshes":[
		{
			"name":"Cube.001",
			"primitives":[
				{
					"attributes":{
						"POSITION":0,
						"NORMAL":1,
						"TEXCOORD_0":2
					},
					"indices":3,
					"material":0
				}
			]
		},
		{
			"name":"Cube.002",
			"primitives":[
				{
					"attributes":{
						"POSITION":4,
						"NORMAL":5,
						"TEXCOORD_0":6
					},
					"indices":7,
					"material":0
				}
			]
		},
		{
			"name":"Cube.001",
			"primitives":[
				{
					"attributes":{
						"POSITION":8,
						"NORMAL":9,
						"TEXCOORD_0":10
					},
					"indices":3,
					"material":0
				}
			]
		}
	],
	"textures":[
		{
			"sampler":0,
			"source":0
		},
		{
			"sampler":0,
			"source":1
		},
		{
			"sampler":0,
			"source":2
		}
	],
	"images":[
		{
			"mimeType":"image/png",
			"name":"godot_plush_normal.png",
			"uri":"../../GameResources/Meshes/Characters/textures/godot_plush_normal.png"
		},
		{
			"mimeType":"image/png",
			"name":"godot_plush_basecolor.png",
			"uri":"../../GameResources/Meshes/Characters/textures/godot_plush_basecolor.png"
		},
		{
			"mimeType":"image/png",
			"name":"godot_plush_roughness.png",
			"uri":"../../GameResources/Meshes/Characters/textures/godot_plush_roughness.png"
		}
	],
	"accessors":[
		{
			"bufferView":0,
			"componentType":5126,
			"count":2793,
			"max":[
				0.11071498692035675,
				0.19829018414020538,
				0.06099051609635353
			],
			"min":[
				-0.11102636903524399,
				0,
				-0.06091900169849396
			],
			"type":"VEC3"
		},
		{
			"bufferView":1,
			"componentType":5126,
			"count":2793,
			"type":"VEC3"
		},
		{
			"bufferView":2,
			"componentType":5126,
			"count":2793,
			"type":"VEC2"
		},
		{
			"bufferView":3,
			"componentType":5123,
			"count":12600,
			"type":"SCALAR"
		},
		{
			"bufferView":4,
			"componentType":5126,
			"count":2786,
			"max":[
				0.11109419912099838,
				0.14312224090099335,
				0.07229392975568771
			],
			"min":[
				-0.11143949627876282,
				-0.0025618814397603273,
				-0.08723041415214539
			],
			"type":"VEC3"
		},
		{
			"bufferView":5,
			"componentType":5126,
			"count":2786,
			"type":"VEC3"
		},
		{
			"bufferView":6,
			"componentType":5126,
			"count":2786,
			"type":"VEC2"
		},
		{
			"bufferView":7,
			"componentType":5123,
			"count":12600,
			"type":"SCALAR"
		},
		{
			"bufferView":8,
			"componentType":5126,
			"count":2793,
			"max":[
				0.11071498692035675,
				0.19829018414020538,
				0.06099051609635353
			],
			"min":[
				-0.11102636903524399,
				0,
				-0.06091900169849396
			],
			"type":"VEC3"
		},
		{
			"bufferView":9,
			"componentType":5126,
			"count":2793,
			"type":"VEC3"
		},
		{
			"bufferView":10,
			"componentType":5126,
			"count":2793,
			"type":"VEC2"
		}
	],
	"bufferViews":[
		{
			"buffer":0,
			"byteLength":33516,
			"byteOffset":0,
			"target":34962
		},
		{
			"buffer":0,
			"byteLength":33516,
			"byteOffset":33516,
			"target":34962
		},
		{
			"buffer":0,
			"byteLength":22344,
			"byteOffset":67032,
			"target":34962
		},
		{
			"buffer":0,
			"byteLength":25200,
			"byteOffset":89376,
			"target":34963
		},
		{
			"buffer":0,
			"byteLength":33432,
			"byteOffset":114576,
			"target":34962
		},
		{
			"buffer":0,
			"byteLength":33432,
			"byteOffset":148008,
			"target":34962
		},
		{
			"buffer":0,
			"byteLength":22288,
			"byteOffset":181440,
			"target":34962
		},
		{
			"buffer":0,
			"byteLength":25200,
			"byteOffset":203728,
			"target":34963
		},
		{
			"buffer":0,
			"byteLength":33516,
			"byteOffset":228928,
			"target":34962
		},
		{
			"buffer":0,
			"byteLength":33516,
			"byteOffset":262444,
			"target":34962
		},
		{
			"buffer":0,
			"byteLength":22344,
			"byteOffset":295960,
			"target":34962
		}
	],
	"samplers":[
		{
			"magFilter":9729,
			"minFilter":9987
		}
	],
	"buffers":[
		{
			"byteLength":318304,
			"uri":"godot_plush%20V2-fbdd77ab77124acea868fccc63176e27.bin"
		}
	]
}
