{
	"asset":{
		"generator":"Khronos glTF Blender I/O v4.1.62",
		"version":"2.0"
	},
	"scene":0,
	"scenes":[
		{
			"name":"Scene",
			"nodes":[
				0
			]
		}
	],
	"nodes":[
		{
			"mesh":0,
			"name":"GrassPatch02",
			"rotation":[
				0,
				0,
				-0.7071068286895752,
				0.7071068286895752
			],
			"scale":[
				0.5,
				1,
				1
			],
			"translation":[
				0,
				0.5,
				0
			]
		}
	],
	"materials":[
		{
			"doubleSided":true,
			"name":"Material",
			"pbrMetallicRoughness":{
				"metallicFactor":0,
				"roughnessFactor":0.5
			}
		}
	],
	"meshes":[
		{
			"name":"Plane",
			"primitives":[
				{
					"attributes":{
						"POSITION":0,
						"NORMAL":1,
						"TEXCOORD_0":2,
						"TANGENT":3
					},
					"indices":4,
					"material":0
				}
			]
		}
	],
	"accessors":[
		{
			"bufferView":0,
			"componentType":5126,
			"count":16,
			"max":[
				1.2500001192092896,
				1.5,
				1.5
			],
			"min":[
				-0.7500002384185791,
				-1.5,
				-1.5
			],
			"type":"VEC3"
		},
		{
			"bufferView":1,
			"componentType":5126,
			"count":16,
			"type":"VEC3"
		},
		{
			"bufferView":2,
			"componentType":5126,
			"count":16,
			"type":"VEC2"
		},
		{
			"bufferView":3,
			"componentType":5126,
			"count":16,
			"type":"VEC4"
		},
		{
			"bufferView":4,
			"componentType":5123,
			"count":24,
			"type":"SCALAR"
		}
	],
	"bufferViews":[
		{
			"buffer":0,
			"byteLength":192,
			"byteOffset":0,
			"target":34962
		},
		{
			"buffer":0,
			"byteLength":192,
			"byteOffset":192,
			"target":34962
		},
		{
			"buffer":0,
			"byteLength":128,
			"byteOffset":384,
			"target":34962
		},
		{
			"buffer":0,
			"byteLength":256,
			"byteOffset":512,
			"target":34962
		},
		{
			"buffer":0,
			"byteLength":48,
			"byteOffset":768,
			"target":34963
		}
	],
	"buffers":[
		{
			"byteLength":816,
			"uri":"GrassPatch02-9254ef233a66ef45f2aa77d706186887.bin"
		}
	]
}
