{
	"asset":{
		"generator":"Khronos glTF Blender I/O v4.1.62",
		"version":"2.0"
	},
	"scene":0,
	"scenes":[
		{
			"name":"Scene",
			"nodes":[
				0
			]
		}
	],
	"nodes":[
		{
			"mesh":0,
			"name":"Cylinder"
		}
	],
	"materials":[
		{
			"doubleSided":true,
			"name":"Material.001",
			"pbrMetallicRoughness":{
				"baseColorTexture":{
					"index":0
				},
				"metallicFactor":0,
				"roughnessFactor":0.5
			}
		}
	],
	"meshes":[
		{
			"name":"Cylinder",
			"primitives":[
				{
					"attributes":{
						"POSITION":0,
						"NORMAL":1,
						"TEXCOORD_0":2
					},
					"indices":3,
					"material":0
				}
			]
		}
	],
	"textures":[
		{
			"sampler":0,
			"source":0
		}
	],
	"images":[
		{
			"mimeType":"image/png",
			"name":"knife.png.001",
			"uri":"../../GameResources/Textures/Guns/Knife/knife.png"
		}
	],
	"accessors":[
		{
			"bufferView":0,
			"componentType":5126,
			"count":647,
			"max":[
				2.3737363815307617,
				0.6654825806617737,
				0.2741125226020813
			],
			"min":[
				-2.3969638347625732,
				-0.5192393064498901,
				-0.2741125226020813
			],
			"type":"VEC3"
		},
		{
			"bufferView":1,
			"componentType":5126,
			"count":647,
			"type":"VEC3"
		},
		{
			"bufferView":2,
			"componentType":5126,
			"count":647,
			"type":"VEC2"
		},
		{
			"bufferView":3,
			"componentType":5123,
			"count":1128,
			"type":"SCALAR"
		}
	],
	"bufferViews":[
		{
			"buffer":0,
			"byteLength":7764,
			"byteOffset":0,
			"target":34962
		},
		{
			"buffer":0,
			"byteLength":7764,
			"byteOffset":7764,
			"target":34962
		},
		{
			"buffer":0,
			"byteLength":5176,
			"byteOffset":15528,
			"target":34962
		},
		{
			"buffer":0,
			"byteLength":2256,
			"byteOffset":20704,
			"target":34963
		}
	],
	"samplers":[
		{
			"magFilter":9728,
			"minFilter":9984
		}
	],
	"buffers":[
		{
			"byteLength":22960,
			"uri":"knife-44fff2205180429e638778c2845649c6.bin"
		}
	]
}
