{
	"asset":{
		"generator":"Khronos glTF Blender I/O v4.1.62",
		"version":"2.0"
	},
	"scene":0,
	"scenes":[
		{
			"name":"Scene",
			"nodes":[
				0,
				1,
				2,
				3,
				4,
				5
			]
		}
	],
	"nodes":[
		{
			"mesh":0,
			"name":"Tac_M14_Body",
			"scale":[
				2.2390365600585938,
				2.2390365600585938,
				2.2390365600585938
			],
			"translation":[
				1.3480608463287354,
				1.656171202659607,
				-0.04625480994582176
			]
		},
		{
			"mesh":1,
			"name":"Tac_M14_Magazene",
			"rotation":[
				0.70710688829422,
				0,
				0,
				0.7071066498756409
			],
			"scale":[
				2.2390365600585938,
				2.2390365600585938,
				2.2390365600585938
			],
			"translation":[
				1.1740319728851318,
				1.2956429719924927,
				-0.04804341122508049
			]
		},
		{
			"mesh":2,
			"name":"Tac_M14_Slide",
			"scale":[
				2.2390365600585938,
				2.2390365600585938,
				2.2390365600585938
			],
			"translation":[
				1.3476635217666626,
				1.656171202659607,
				-0.04625480994582176
			]
		},
		{
			"mesh":3,
			"name":"Tac_M14_Trigger",
			"rotation":[
				0.7011393308639526,
				-0.09167173504829407,
				-0.09167174249887466,
				0.7011392712593079
			],
			"scale":[
				0.07198482751846313,
				0.07198483496904373,
				0.07198482751846313
			],
			"translation":[
				-0.10539910942316055,
				1.3924217224121094,
				-0.016324076801538467
			]
		},
		{
			"mesh":4,
			"name":"308_Bullet.001",
			"rotation":[
				0.7071083784103394,
				0,
				0,
				0.7071051597595215
			],
			"scale":[
				1.7239817380905151,
				1.7239817380905151,
				1.7239817380905151
			],
			"translation":[
				1.7841877937316895,
				1.0623990297317505,
				-0.04044308140873909
			]
		},
		{
			"mesh":5,
			"name":"308_Bullet.003",
			"rotation":[
				0.7071083784103394,
				0,
				0,
				0.7071051597595215
			],
			"scale":[
				1.7239817380905151,
				1.7239817380905151,
				1.7239817380905151
			],
			"translation":[
				1.9216114282608032,
				1.0623990297317505,
				-0.04044308140873909
			]
		}
	],
	"materials":[
		{
			"doubleSided":true,
			"name":"Material.046",
			"pbrMetallicRoughness":{
				"baseColorTexture":{
					"index":0
				},
				"metallicFactor":0,
				"roughnessFactor":0.5
			}
		},
		{
			"doubleSided":true,
			"name":"Material.047",
			"pbrMetallicRoughness":{
				"baseColorTexture":{
					"index":1
				},
				"metallicFactor":0,
				"roughnessFactor":0.5
			}
		},
		{
			"doubleSided":true,
			"name":"Material.048",
			"pbrMetallicRoughness":{
				"baseColorTexture":{
					"index":2
				},
				"metallicFactor":0,
				"roughnessFactor":0.5
			}
		},
		{
			"doubleSided":true,
			"name":"Material.049",
			"pbrMetallicRoughness":{
				"baseColorTexture":{
					"index":3
				},
				"metallicFactor":0,
				"roughnessFactor":0.5
			}
		},
		{
			"doubleSided":true,
			"name":"Material.050",
			"pbrMetallicRoughness":{
				"baseColorTexture":{
					"index":4
				},
				"metallicFactor":0,
				"roughnessFactor":0.5
			}
		},
		{
			"doubleSided":true,
			"name":"Material.051",
			"pbrMetallicRoughness":{
				"baseColorTexture":{
					"index":5
				},
				"metallicFactor":0,
				"roughnessFactor":0.5
			}
		}
	],
	"meshes":[
		{
			"name":"Cube.021",
			"primitives":[
				{
					"attributes":{
						"POSITION":0,
						"NORMAL":1,
						"TEXCOORD_0":2
					},
					"indices":3,
					"material":0
				},
				{
					"attributes":{
						"POSITION":4,
						"NORMAL":5,
						"TEXCOORD_0":6
					},
					"indices":7,
					"material":1
				},
				{
					"attributes":{
						"POSITION":8,
						"NORMAL":9,
						"TEXCOORD_0":10
					},
					"indices":11,
					"material":2
				}
			]
		},
		{
			"name":"FAL_Magazene",
			"primitives":[
				{
					"attributes":{
						"POSITION":12,
						"NORMAL":13,
						"TEXCOORD_0":14,
						"TANGENT":15
					},
					"indices":16,
					"material":3
				}
			]
		},
		{
			"name":"Cube.022",
			"primitives":[
				{
					"attributes":{
						"POSITION":17,
						"NORMAL":18,
						"TEXCOORD_0":19,
						"TANGENT":20
					},
					"indices":21,
					"material":0
				}
			]
		},
		{
			"name":"Plane.003",
			"primitives":[
				{
					"attributes":{
						"POSITION":22,
						"NORMAL":23,
						"TEXCOORD_0":24,
						"TANGENT":25
					},
					"indices":26,
					"material":4
				}
			]
		},
		{
			"name":"308_Bullet.001",
			"primitives":[
				{
					"attributes":{
						"POSITION":27,
						"NORMAL":28,
						"TEXCOORD_0":29,
						"TANGENT":30
					},
					"indices":31,
					"material":5
				}
			]
		},
		{
			"name":"308_Bullet.003",
			"primitives":[
				{
					"attributes":{
						"POSITION":32,
						"NORMAL":33,
						"TEXCOORD_0":34,
						"TANGENT":35
					},
					"indices":36,
					"material":5
				}
			]
		}
	],
	"textures":[
		{
			"sampler":0,
			"source":0
		},
		{
			"sampler":0,
			"source":0
		},
		{
			"sampler":0,
			"source":0
		},
		{
			"sampler":0,
			"source":0
		},
		{
			"sampler":0,
			"source":0
		},
		{
			"sampler":0,
			"source":0
		}
	],
	"images":[
		{
			"mimeType":"image/png",
			"name":"Tac_M14_Text",
			"uri":"../../GameResources/Textures/Guns/M14/Tac_M14_Text.png"
		}
	],
	"accessors":[
		{
			"bufferView":0,
			"componentType":5126,
			"count":595,
			"max":[
				2.688450336456299,
				0.290377676486969,
				0.10616778582334518
			],
			"min":[
				-1.1660170555114746,
				-0.5783155560493469,
				-0.10616778582334518
			],
			"type":"VEC3"
		},
		{
			"bufferView":1,
			"componentType":5126,
			"count":595,
			"type":"VEC3"
		},
		{
			"bufferView":2,
			"componentType":5126,
			"count":595,
			"type":"VEC2"
		},
		{
			"bufferView":3,
			"componentType":5123,
			"count":948,
			"type":"SCALAR"
		},
		{
			"bufferView":4,
			"componentType":5126,
			"count":48,
			"max":[
				-0.9686938524246216,
				0.09489163011312485,
				0.10674354434013367
			],
			"min":[
				-1.043971061706543,
				-0.06553089618682861,
				-0.034822069108486176
			],
			"type":"VEC3"
		},
		{
			"bufferView":5,
			"componentType":5126,
			"count":48,
			"type":"VEC3"
		},
		{
			"bufferView":6,
			"componentType":5126,
			"count":48,
			"type":"VEC2"
		},
		{
			"bufferView":7,
			"componentType":5123,
			"count":78,
			"type":"SCALAR"
		},
		{
			"bufferView":8,
			"componentType":5126,
			"count":80,
			"max":[
				-0.9846678972244263,
				0.0066832732409238815,
				0.041092075407505035
			],
			"min":[
				-2.435089588165283,
				-0.5665478110313416,
				-0.04109208285808563
			],
			"type":"VEC3"
		},
		{
			"bufferView":9,
			"componentType":5126,
			"count":80,
			"type":"VEC3"
		},
		{
			"bufferView":10,
			"componentType":5126,
			"count":80,
			"type":"VEC2"
		},
		{
			"bufferView":11,
			"componentType":5123,
			"count":168,
			"type":"SCALAR"
		},
		{
			"bufferView":12,
			"componentType":5126,
			"count":46,
			"max":[
				0.200272798538208,
				0.04449799284338951,
				0.37073588371276855
			],
			"min":[
				-0.18231479823589325,
				-0.04449807479977608,
				-0.3020651340484619
			],
			"type":"VEC3"
		},
		{
			"bufferView":13,
			"componentType":5126,
			"count":46,
			"type":"VEC3"
		},
		{
			"bufferView":14,
			"componentType":5126,
			"count":46,
			"type":"VEC2"
		},
		{
			"bufferView":15,
			"componentType":5126,
			"count":46,
			"type":"VEC4"
		},
		{
			"bufferView":16,
			"componentType":5123,
			"count":78,
			"type":"SCALAR"
		},
		{
			"bufferView":17,
			"componentType":5126,
			"count":46,
			"max":[
				0.05039726942777634,
				0.1785539984703064,
				0.15410298109054565
			],
			"min":[
				-0.2740112245082855,
				0.16362017393112183,
				-0.07330965250730515
			],
			"type":"VEC3"
		},
		{
			"bufferView":18,
			"componentType":5126,
			"count":46,
			"type":"VEC3"
		},
		{
			"bufferView":19,
			"componentType":5126,
			"count":46,
			"type":"VEC2"
		},
		{
			"bufferView":20,
			"componentType":5126,
			"count":46,
			"type":"VEC4"
		},
		{
			"bufferView":21,
			"componentType":5123,
			"count":78,
			"type":"SCALAR"
		},
		{
			"bufferView":22,
			"componentType":5126,
			"count":20,
			"max":[
				1,
				3.4012444416475773e-08,
				4.504101753234863
			],
			"min":[
				-1,
				-3.340144587582472e-07,
				-1
			],
			"type":"VEC3"
		},
		{
			"bufferView":23,
			"componentType":5126,
			"count":20,
			"type":"VEC3"
		},
		{
			"bufferView":24,
			"componentType":5126,
			"count":20,
			"type":"VEC2"
		},
		{
			"bufferView":25,
			"componentType":5126,
			"count":20,
			"type":"VEC4"
		},
		{
			"bufferView":26,
			"componentType":5123,
			"count":48,
			"type":"SCALAR"
		},
		{
			"bufferView":27,
			"componentType":5126,
			"count":64,
			"max":[
				0.024040520191192627,
				0.0236019529402256,
				0.19324922561645508
			],
			"min":[
				-0.03060048818588257,
				-0.02696104720234871,
				-0.17701077461242676
			],
			"type":"VEC3"
		},
		{
			"bufferView":28,
			"componentType":5126,
			"count":64,
			"type":"VEC3"
		},
		{
			"bufferView":29,
			"componentType":5126,
			"count":64,
			"type":"VEC2"
		},
		{
			"bufferView":30,
			"componentType":5126,
			"count":64,
			"type":"VEC4"
		},
		{
			"bufferView":31,
			"componentType":5123,
			"count":90,
			"type":"SCALAR"
		},
		{
			"bufferView":32,
			"componentType":5126,
			"count":57,
			"max":[
				0.024040520191192627,
				0.0236019529402256,
				0.19324922561645508
			],
			"min":[
				-0.03060048818588257,
				-0.02696104720234871,
				-0.06513571739196777
			],
			"type":"VEC3"
		},
		{
			"bufferView":33,
			"componentType":5126,
			"count":57,
			"type":"VEC3"
		},
		{
			"bufferView":34,
			"componentType":5126,
			"count":57,
			"type":"VEC2"
		},
		{
			"bufferView":35,
			"componentType":5126,
			"count":57,
			"type":"VEC4"
		},
		{
			"bufferView":36,
			"componentType":5123,
			"count":90,
			"type":"SCALAR"
		}
	],
	"bufferViews":[
		{
			"buffer":0,
			"byteLength":7140,
			"byteOffset":0,
			"target":34962
		},
		{
			"buffer":0,
			"byteLength":7140,
			"byteOffset":7140,
			"target":34962
		},
		{
			"buffer":0,
			"byteLength":4760,
			"byteOffset":14280,
			"target":34962
		},
		{
			"buffer":0,
			"byteLength":1896,
			"byteOffset":19040,
			"target":34963
		},
		{
			"buffer":0,
			"byteLength":576,
			"byteOffset":20936,
			"target":34962
		},
		{
			"buffer":0,
			"byteLength":576,
			"byteOffset":21512,
			"target":34962
		},
		{
			"buffer":0,
			"byteLength":384,
			"byteOffset":22088,
			"target":34962
		},
		{
			"buffer":0,
			"byteLength":156,
			"byteOffset":22472,
			"target":34963
		},
		{
			"buffer":0,
			"byteLength":960,
			"byteOffset":22628,
			"target":34962
		},
		{
			"buffer":0,
			"byteLength":960,
			"byteOffset":23588,
			"target":34962
		},
		{
			"buffer":0,
			"byteLength":640,
			"byteOffset":24548,
			"target":34962
		},
		{
			"buffer":0,
			"byteLength":336,
			"byteOffset":25188,
			"target":34963
		},
		{
			"buffer":0,
			"byteLength":552,
			"byteOffset":25524,
			"target":34962
		},
		{
			"buffer":0,
			"byteLength":552,
			"byteOffset":26076,
			"target":34962
		},
		{
			"buffer":0,
			"byteLength":368,
			"byteOffset":26628,
			"target":34962
		},
		{
			"buffer":0,
			"byteLength":736,
			"byteOffset":26996,
			"target":34962
		},
		{
			"buffer":0,
			"byteLength":156,
			"byteOffset":27732,
			"target":34963
		},
		{
			"buffer":0,
			"byteLength":552,
			"byteOffset":27888,
			"target":34962
		},
		{
			"buffer":0,
			"byteLength":552,
			"byteOffset":28440,
			"target":34962
		},
		{
			"buffer":0,
			"byteLength":368,
			"byteOffset":28992,
			"target":34962
		},
		{
			"buffer":0,
			"byteLength":736,
			"byteOffset":29360,
			"target":34962
		},
		{
			"buffer":0,
			"byteLength":156,
			"byteOffset":30096,
			"target":34963
		},
		{
			"buffer":0,
			"byteLength":240,
			"byteOffset":30252,
			"target":34962
		},
		{
			"buffer":0,
			"byteLength":240,
			"byteOffset":30492,
			"target":34962
		},
		{
			"buffer":0,
			"byteLength":160,
			"byteOffset":30732,
			"target":34962
		},
		{
			"buffer":0,
			"byteLength":320,
			"byteOffset":30892,
			"target":34962
		},
		{
			"buffer":0,
			"byteLength":96,
			"byteOffset":31212,
			"target":34963
		},
		{
			"buffer":0,
			"byteLength":768,
			"byteOffset":31308,
			"target":34962
		},
		{
			"buffer":0,
			"byteLength":768,
			"byteOffset":32076,
			"target":34962
		},
		{
			"buffer":0,
			"byteLength":512,
			"byteOffset":32844,
			"target":34962
		},
		{
			"buffer":0,
			"byteLength":1024,
			"byteOffset":33356,
			"target":34962
		},
		{
			"buffer":0,
			"byteLength":180,
			"byteOffset":34380,
			"target":34963
		},
		{
			"buffer":0,
			"byteLength":684,
			"byteOffset":34560,
			"target":34962
		},
		{
			"buffer":0,
			"byteLength":684,
			"byteOffset":35244,
			"target":34962
		},
		{
			"buffer":0,
			"byteLength":456,
			"byteOffset":35928,
			"target":34962
		},
		{
			"buffer":0,
			"byteLength":912,
			"byteOffset":36384,
			"target":34962
		},
		{
			"buffer":0,
			"byteLength":180,
			"byteOffset":37296,
			"target":34963
		}
	],
	"samplers":[
		{
			"magFilter":9729,
			"minFilter":9987
		}
	],
	"buffers":[
		{
			"byteLength":37476,
			"uri":"M14-d9c9ffa8e7c544fa1fe16722d94d1118.bin"
		}
	]
}
