{
	"asset":{
		"generator":"Khronos glTF Blender I/O v4.1.62",
		"version":"2.0"
	},
	"scene":0,
	"scenes":[
		{
			"name":"Scene",
			"nodes":[
				0,
				1,
				2,
				3,
				4
			]
		}
	],
	"nodes":[
		{
			"mesh":0,
			"name":"556",
			"rotation":[
				0.7071068286895752,
				0,
				0,
				0.7071068286895752
			]
		},
		{
			"mesh":1,
			"name":"556_Empty",
			"rotation":[
				0.7071068286895752,
				0,
				0,
				0.7071068286895752
			]
		},
		{
			"mesh":2,
			"name":"M16",
			"rotation":[
				0.7071068286895752,
				0,
				0,
				0.7071068286895752
			]
		},
		{
			"mesh":3,
			"name":"M16_Mag",
			"rotation":[
				0.7071068286895752,
				0,
				0,
				0.7071068286895752
			]
		},
		{
			"mesh":4,
			"name":"M16_Mag_Full",
			"rotation":[
				0.7071068286895752,
				0,
				0,
				0.7071068286895752
			]
		}
	],
	"materials":[
		{
			"alphaMode":"BLEND",
			"doubleSided":true,
			"name":"Material.003",
			"pbrMetallicRoughness":{
				"metallicFactor":0,
				"roughnessFactor":0.5
			}
		},
		{
			"alphaMode":"BLEND",
			"doubleSided":true,
			"name":"Material.005",
			"pbrMetallicRoughness":{
				"baseColorTexture":{
					"index":0
				},
				"metallicFactor":0,
				"roughnessFactor":0.5
			}
		},
		{
			"alphaMode":"BLEND",
			"doubleSided":true,
			"name":"Material.006",
			"pbrMetallicRoughness":{
				"baseColorTexture":{
					"index":1
				},
				"metallicFactor":0,
				"roughnessFactor":0.5
			}
		}
	],
	"meshes":[
		{
			"name":"556",
			"primitives":[
				{
					"attributes":{
						"POSITION":0,
						"NORMAL":1,
						"TEXCOORD_0":2,
						"TANGENT":3
					},
					"indices":4,
					"material":0
				}
			]
		},
		{
			"name":"556_Empty",
			"primitives":[
				{
					"attributes":{
						"POSITION":5,
						"NORMAL":6,
						"TEXCOORD_0":7,
						"TANGENT":8
					},
					"indices":9,
					"material":0
				}
			]
		},
		{
			"name":"M16",
			"primitives":[
				{
					"attributes":{
						"POSITION":10,
						"NORMAL":11,
						"TEXCOORD_0":12
					},
					"indices":13,
					"material":1
				}
			]
		},
		{
			"name":"M16_Mag",
			"primitives":[
				{
					"attributes":{
						"POSITION":14,
						"NORMAL":15,
						"TEXCOORD_0":16,
						"TANGENT":17
					},
					"indices":18,
					"material":2
				}
			]
		},
		{
			"name":"M16_Mag_Full",
			"primitives":[
				{
					"attributes":{
						"POSITION":19,
						"NORMAL":20,
						"TEXCOORD_0":21,
						"TANGENT":22
					},
					"indices":18,
					"material":2
				},
				{
					"attributes":{
						"POSITION":23,
						"NORMAL":24,
						"TEXCOORD_0":25,
						"TANGENT":26
					},
					"indices":27,
					"material":0
				}
			]
		}
	],
	"textures":[
		{
			"sampler":0,
			"source":0
		},
		{
			"sampler":0,
			"source":0
		}
	],
	"images":[
		{
			"mimeType":"image/png",
			"name":"M16_Texture_240.png.001",
			"uri":"../../GameResources/Textures/Guns/M16A2/M16_Texture_240.png"
		}
	],
	"accessors":[
		{
			"bufferView":0,
			"componentType":5126,
			"count":64,
			"max":[
				0.3360460102558136,
				0.021796999499201775,
				-0.4223420023918152
			],
			"min":[
				0.29410699009895325,
				-0.020142000168561935,
				-0.6871880292892456
			],
			"type":"VEC3"
		},
		{
			"bufferView":1,
			"componentType":5126,
			"count":64,
			"type":"VEC3"
		},
		{
			"bufferView":2,
			"componentType":5126,
			"count":64,
			"type":"VEC2"
		},
		{
			"bufferView":3,
			"componentType":5126,
			"count":64,
			"type":"VEC4"
		},
		{
			"bufferView":4,
			"componentType":5123,
			"count":90,
			"type":"SCALAR"
		},
		{
			"bufferView":5,
			"componentType":5126,
			"count":56,
			"max":[
				0.3972319960594177,
				0.021796999499201775,
				-0.4223420023918152
			],
			"min":[
				0.35529300570487976,
				-0.020142000168561935,
				-0.6258770227432251
			],
			"type":"VEC3"
		},
		{
			"bufferView":6,
			"componentType":5126,
			"count":56,
			"type":"VEC3"
		},
		{
			"bufferView":7,
			"componentType":5126,
			"count":56,
			"type":"VEC2"
		},
		{
			"bufferView":8,
			"componentType":5126,
			"count":56,
			"type":"VEC4"
		},
		{
			"bufferView":9,
			"componentType":5123,
			"count":84,
			"type":"SCALAR"
		},
		{
			"bufferView":10,
			"componentType":5126,
			"count":333,
			"max":[
				2.40107798576355,
				0.09994900226593018,
				-0.359699010848999
			],
			"min":[
				-1.993607997894287,
				-0.09995000064373016,
				-1.3049319982528687
			],
			"type":"VEC3"
		},
		{
			"bufferView":11,
			"componentType":5126,
			"count":333,
			"type":"VEC3"
		},
		{
			"bufferView":12,
			"componentType":5126,
			"count":333,
			"type":"VEC2"
		},
		{
			"bufferView":13,
			"componentType":5123,
			"count":873,
			"type":"SCALAR"
		},
		{
			"bufferView":14,
			"componentType":5126,
			"count":44,
			"max":[
				0.08178099989891052,
				0.046918999403715134,
				-0.19359299540519714
			],
			"min":[
				-0.2861509919166565,
				-0.046918999403715134,
				-0.9827859997749329
			],
			"type":"VEC3"
		},
		{
			"bufferView":15,
			"componentType":5126,
			"count":44,
			"type":"VEC3"
		},
		{
			"bufferView":16,
			"componentType":5126,
			"count":44,
			"type":"VEC2"
		},
		{
			"bufferView":17,
			"componentType":5126,
			"count":44,
			"type":"VEC4"
		},
		{
			"bufferView":18,
			"componentType":5123,
			"count":78,
			"type":"SCALAR"
		},
		{
			"bufferView":19,
			"componentType":5126,
			"count":44,
			"max":[
				0.08178099989891052,
				0.2693530023097992,
				-0.19359299540519714
			],
			"min":[
				-0.2861509919166565,
				0.17551499605178833,
				-0.9827859997749329
			],
			"type":"VEC3"
		},
		{
			"bufferView":20,
			"componentType":5126,
			"count":44,
			"type":"VEC3"
		},
		{
			"bufferView":21,
			"componentType":5126,
			"count":44,
			"type":"VEC2"
		},
		{
			"bufferView":22,
			"componentType":5126,
			"count":44,
			"type":"VEC4"
		},
		{
			"bufferView":23,
			"componentType":5126,
			"count":56,
			"max":[
				-0.012279000133275986,
				0.24480299651622772,
				-0.9454590082168579
			],
			"min":[
				-0.2776930034160614,
				0.20286400616168976,
				-0.993012011051178
			],
			"type":"VEC3"
		},
		{
			"bufferView":24,
			"componentType":5126,
			"count":56,
			"type":"VEC3"
		},
		{
			"bufferView":25,
			"componentType":5126,
			"count":56,
			"type":"VEC2"
		},
		{
			"bufferView":26,
			"componentType":5126,
			"count":56,
			"type":"VEC4"
		},
		{
			"bufferView":27,
			"componentType":5123,
			"count":78,
			"type":"SCALAR"
		}
	],
	"bufferViews":[
		{
			"buffer":0,
			"byteLength":768,
			"byteOffset":0,
			"target":34962
		},
		{
			"buffer":0,
			"byteLength":768,
			"byteOffset":768,
			"target":34962
		},
		{
			"buffer":0,
			"byteLength":512,
			"byteOffset":1536,
			"target":34962
		},
		{
			"buffer":0,
			"byteLength":1024,
			"byteOffset":2048,
			"target":34962
		},
		{
			"buffer":0,
			"byteLength":180,
			"byteOffset":3072,
			"target":34963
		},
		{
			"buffer":0,
			"byteLength":672,
			"byteOffset":3252,
			"target":34962
		},
		{
			"buffer":0,
			"byteLength":672,
			"byteOffset":3924,
			"target":34962
		},
		{
			"buffer":0,
			"byteLength":448,
			"byteOffset":4596,
			"target":34962
		},
		{
			"buffer":0,
			"byteLength":896,
			"byteOffset":5044,
			"target":34962
		},
		{
			"buffer":0,
			"byteLength":168,
			"byteOffset":5940,
			"target":34963
		},
		{
			"buffer":0,
			"byteLength":3996,
			"byteOffset":6108,
			"target":34962
		},
		{
			"buffer":0,
			"byteLength":3996,
			"byteOffset":10104,
			"target":34962
		},
		{
			"buffer":0,
			"byteLength":2664,
			"byteOffset":14100,
			"target":34962
		},
		{
			"buffer":0,
			"byteLength":1746,
			"byteOffset":16764,
			"target":34963
		},
		{
			"buffer":0,
			"byteLength":528,
			"byteOffset":18512,
			"target":34962
		},
		{
			"buffer":0,
			"byteLength":528,
			"byteOffset":19040,
			"target":34962
		},
		{
			"buffer":0,
			"byteLength":352,
			"byteOffset":19568,
			"target":34962
		},
		{
			"buffer":0,
			"byteLength":704,
			"byteOffset":19920,
			"target":34962
		},
		{
			"buffer":0,
			"byteLength":156,
			"byteOffset":20624,
			"target":34963
		},
		{
			"buffer":0,
			"byteLength":528,
			"byteOffset":20780,
			"target":34962
		},
		{
			"buffer":0,
			"byteLength":528,
			"byteOffset":21308,
			"target":34962
		},
		{
			"buffer":0,
			"byteLength":352,
			"byteOffset":21836,
			"target":34962
		},
		{
			"buffer":0,
			"byteLength":704,
			"byteOffset":22188,
			"target":34962
		},
		{
			"buffer":0,
			"byteLength":672,
			"byteOffset":22892,
			"target":34962
		},
		{
			"buffer":0,
			"byteLength":672,
			"byteOffset":23564,
			"target":34962
		},
		{
			"buffer":0,
			"byteLength":448,
			"byteOffset":24236,
			"target":34962
		},
		{
			"buffer":0,
			"byteLength":896,
			"byteOffset":24684,
			"target":34962
		},
		{
			"buffer":0,
			"byteLength":156,
			"byteOffset":25580,
			"target":34963
		}
	],
	"samplers":[
		{
			"magFilter":9729,
			"minFilter":9987
		}
	],
	"buffers":[
		{
			"byteLength":25736,
			"uri":"M16A2-de00ed2d5d81fe6558696531806bdab2.bin"
		}
	]
}
