{
	"asset":{
		"generator":"Khronos glTF Blender I/O v4.1.62",
		"version":"2.0"
	},
	"scene":0,
	"scenes":[
		{
			"name":"Scene",
			"nodes":[
				10,
				11,
				12,
				13
			]
		}
	],
	"nodes":[
		{
			"name":"trigger",
			"rotation":[
				-7.105427357601002e-15,
				5.219924164283644e-23,
				-1.7763568394002505e-15,
				1
			],
			"translation":[
				3.0909632187103853e-06,
				-6.624016761779785,
				4.063040733337402
			]
		},
		{
			"name":"bolt",
			"rotation":[
				-7.105427357601002e-15,
				5.219924164283644e-23,
				5.329070518200751e-15,
				1
			],
			"translation":[
				2.5429842480662046e-06,
				-9.3429536819458,
				9.718544006347656
			]
		},
		{
			"name":"rear_sight_hole",
			"rotation":[
				-7.105427357601002e-15,
				-2.4207026127290316e-22,
				0,
				1
			],
			"translation":[
				9.546480441713356e-07,
				-3.3879830837249756,
				-0.004746863152831793
			]
		},
		{
			"children":[
				2
			],
			"name":"rear_sight",
			"rotation":[
				-7.105427357601002e-15,
				5.219924164283644e-23,
				-2.1316282072803006e-14,
				1
			],
			"translation":[
				-3.181910983585112e-07,
				12.47928237915039,
				10.237558364868164
			]
		},
		{
			"name":"magazine_attach",
			"rotation":[
				0,
				-4.733165431326071e-29,
				2.185570835422368e-08,
				1
			],
			"scale":[
				1,
				1.0000001192092896,
				1
			],
			"translation":[
				2.789226369401959e-13,
				1.0747971828095615e-06,
				-7.172643661499023
			]
		},
		{
			"children":[
				4
			],
			"name":"magazine",
			"rotation":[
				-7.105427357601002e-15,
				2.6395747845641152e-22,
				-1.865174681370263e-14,
				1
			],
			"scale":[
				1,
				0.9999998807907104,
				1
			],
			"translation":[
				3.3330829865008127e-06,
				-12.16306209564209,
				6.429194927215576
			]
		},
		{
			"name":"stock_attach",
			"rotation":[
				-7.105427357601002e-15,
				5.2199266886385407e-23,
				-1.5987211554602254e-14,
				1
			],
			"translation":[
				-2.807848034080962e-07,
				10.684844017028809,
				5.63514518737793
			]
		},
		{
			"name":"grip_attach",
			"rotation":[
				-7.105427357601002e-15,
				2.6395747845641152e-22,
				-6.039613253960852e-14,
				1
			],
			"translation":[
				5.222119398240466e-06,
				-29.858665466308594,
				6.1566643714904785
			]
		},
		{
			"children":[
				0,
				1,
				3,
				5,
				6,
				7
			],
			"name":"root",
			"rotation":[
				-0.7071067690849304,
				-1.5454309831852697e-08,
				-1.5454309831852697e-08,
				0.7071067690849304
			]
		},
		{
			"mesh":0,
			"name":"M1928A1_Mesh",
			"skin":0
		},
		{
			"children":[
				9,
				8
			],
			"name":"Armature",
			"scale":[
				0.009999999776482582,
				0.009999999776482582,
				0.009999999776482582
			]
		},
		{
			"mesh":1,
			"name":"SM_Attach_M1928A1_HorizontalGrip",
			"scale":[
				0.009999999776482582,
				0.009999999776482582,
				0.009999999776482582
			],
			"translation":[
				0,
				0.05614791810512543,
				0.29684439301490784
			]
		},
		{
			"mesh":2,
			"name":"SM_Attach_M1928A1_Stock",
			"scale":[
				0.009999999776482582,
				0.009999999776482582,
				0.009999999776482582
			],
			"translation":[
				0,
				0.05624621361494064,
				-0.11779332906007767
			]
		},
		{
			"mesh":3,
			"name":"SM_Mag_M1928A1_Stick20",
			"scale":[
				0.009999999776482582,
				0.009999999776482582,
				0.009999999776482582
			],
			"translation":[
				0,
				0,
				0.12931589782238007
			]
		}
	],
	"materials":[
		{
			"doubleSided":true,
			"name":"Material.001",
			"pbrMetallicRoughness":{
				"baseColorFactor":[
					0.800000011920929,
					0.800000011920929,
					0.800000011920929,
					1
				],
				"metallicFactor":0,
				"roughnessFactor":0.4000000059604645
			}
		},
		{
			"doubleSided":true,
			"name":"Material.002",
			"pbrMetallicRoughness":{
				"baseColorFactor":[
					0.800000011920929,
					0.800000011920929,
					0.800000011920929,
					1
				],
				"metallicFactor":0,
				"roughnessFactor":0.4000000059604645
			}
		},
		{
			"doubleSided":true,
			"name":"Material.003",
			"pbrMetallicRoughness":{
				"baseColorFactor":[
					0.800000011920929,
					0.800000011920929,
					0.800000011920929,
					1
				],
				"metallicFactor":0,
				"roughnessFactor":0.4000000059604645
			}
		},
		{
			"doubleSided":true,
			"name":"Material.004",
			"pbrMetallicRoughness":{
				"baseColorFactor":[
					0.800000011920929,
					0.800000011920929,
					0.800000011920929,
					1
				],
				"metallicFactor":0,
				"roughnessFactor":0.4000000059604645
			}
		}
	],
	"meshes":[
		{
			"name":"Cube.006",
			"primitives":[
				{
					"attributes":{
						"POSITION":0,
						"NORMAL":1,
						"TEXCOORD_0":2,
						"TANGENT":3,
						"JOINTS_0":4,
						"WEIGHTS_0":5
					},
					"indices":6,
					"material":0
				}
			]
		},
		{
			"name":"Cube.005",
			"primitives":[
				{
					"attributes":{
						"POSITION":8,
						"NORMAL":9,
						"TEXCOORD_0":10,
						"TANGENT":11
					},
					"indices":12,
					"material":1
				}
			]
		},
		{
			"name":"Cube.009",
			"primitives":[
				{
					"attributes":{
						"POSITION":13,
						"NORMAL":14,
						"TEXCOORD_0":15,
						"TANGENT":16
					},
					"indices":17,
					"material":2
				}
			]
		},
		{
			"name":"Cube.010",
			"primitives":[
				{
					"attributes":{
						"POSITION":18,
						"NORMAL":19,
						"TEXCOORD_0":20
					},
					"indices":21,
					"material":3
				}
			]
		}
	],
	"skins":[
		{
			"inverseBindMatrices":7,
			"joints":[
				8,
				0,
				1,
				3,
				2,
				5,
				4,
				6,
				7
			],
			"name":"Armature"
		}
	],
	"accessors":[
		{
			"bufferView":0,
			"componentType":5126,
			"count":623,
			"max":[
				0.019088957458734512,
				0.11597155779600143,
				0.4896392226219177
			],
			"min":[
				-0.01908886805176735,
				-0.06372148543596268,
				-0.14436867833137512
			],
			"type":"VEC3"
		},
		{
			"bufferView":1,
			"componentType":5126,
			"count":623,
			"type":"VEC3"
		},
		{
			"bufferView":2,
			"componentType":5126,
			"count":623,
			"type":"VEC2"
		},
		{
			"bufferView":3,
			"componentType":5126,
			"count":623,
			"type":"VEC4"
		},
		{
			"bufferView":4,
			"componentType":5121,
			"count":623,
			"type":"VEC4"
		},
		{
			"bufferView":5,
			"componentType":5126,
			"count":623,
			"type":"VEC4"
		},
		{
			"bufferView":6,
			"componentType":5123,
			"count":1218,
			"type":"SCALAR"
		},
		{
			"bufferView":7,
			"componentType":5126,
			"count":9,
			"type":"MAT4"
		},
		{
			"bufferView":8,
			"componentType":5126,
			"count":24,
			"max":[
				1.7314631938934326,
				2.2367353439331055,
				10.76272201538086
			],
			"min":[
				-1.7314708232879639,
				-1.7164306640625,
				-10.693710327148438
			],
			"type":"VEC3"
		},
		{
			"bufferView":9,
			"componentType":5126,
			"count":24,
			"type":"VEC3"
		},
		{
			"bufferView":10,
			"componentType":5126,
			"count":24,
			"type":"VEC2"
		},
		{
			"bufferView":11,
			"componentType":5126,
			"count":24,
			"type":"VEC4"
		},
		{
			"bufferView":12,
			"componentType":5123,
			"count":36,
			"type":"SCALAR"
		},
		{
			"bufferView":13,
			"componentType":5126,
			"count":38,
			"max":[
				1.5765469074249268,
				0,
				4.891888618469238
			],
			"min":[
				-1.5765528678894043,
				-15.96080493927002,
				-26.419790267944336
			],
			"type":"VEC3"
		},
		{
			"bufferView":14,
			"componentType":5126,
			"count":38,
			"type":"VEC3"
		},
		{
			"bufferView":15,
			"componentType":5126,
			"count":38,
			"type":"VEC2"
		},
		{
			"bufferView":16,
			"componentType":5126,
			"count":38,
			"type":"VEC4"
		},
		{
			"bufferView":17,
			"componentType":5123,
			"count":84,
			"type":"SCALAR"
		},
		{
			"bufferView":18,
			"componentType":5126,
			"count":54,
			"max":[
				1.2298996448516846,
				8.458581924438477,
				1.7235127687454224
			],
			"min":[
				-1.2299011945724487,
				-8.391579627990723,
				-2.710226058959961
			],
			"type":"VEC3"
		},
		{
			"bufferView":19,
			"componentType":5126,
			"count":54,
			"type":"VEC3"
		},
		{
			"bufferView":20,
			"componentType":5126,
			"count":54,
			"type":"VEC2"
		},
		{
			"bufferView":21,
			"componentType":5123,
			"count":96,
			"type":"SCALAR"
		}
	],
	"bufferViews":[
		{
			"buffer":0,
			"byteLength":7476,
			"byteOffset":0,
			"target":34962
		},
		{
			"buffer":0,
			"byteLength":7476,
			"byteOffset":7476,
			"target":34962
		},
		{
			"buffer":0,
			"byteLength":4984,
			"byteOffset":14952,
			"target":34962
		},
		{
			"buffer":0,
			"byteLength":9968,
			"byteOffset":19936,
			"target":34962
		},
		{
			"buffer":0,
			"byteLength":2492,
			"byteOffset":29904,
			"target":34962
		},
		{
			"buffer":0,
			"byteLength":9968,
			"byteOffset":32396,
			"target":34962
		},
		{
			"buffer":0,
			"byteLength":2436,
			"byteOffset":42364,
			"target":34963
		},
		{
			"buffer":0,
			"byteLength":576,
			"byteOffset":44800
		},
		{
			"buffer":0,
			"byteLength":288,
			"byteOffset":45376,
			"target":34962
		},
		{
			"buffer":0,
			"byteLength":288,
			"byteOffset":45664,
			"target":34962
		},
		{
			"buffer":0,
			"byteLength":192,
			"byteOffset":45952,
			"target":34962
		},
		{
			"buffer":0,
			"byteLength":384,
			"byteOffset":46144,
			"target":34962
		},
		{
			"buffer":0,
			"byteLength":72,
			"byteOffset":46528,
			"target":34963
		},
		{
			"buffer":0,
			"byteLength":456,
			"byteOffset":46600,
			"target":34962
		},
		{
			"buffer":0,
			"byteLength":456,
			"byteOffset":47056,
			"target":34962
		},
		{
			"buffer":0,
			"byteLength":304,
			"byteOffset":47512,
			"target":34962
		},
		{
			"buffer":0,
			"byteLength":608,
			"byteOffset":47816,
			"target":34962
		},
		{
			"buffer":0,
			"byteLength":168,
			"byteOffset":48424,
			"target":34963
		},
		{
			"buffer":0,
			"byteLength":648,
			"byteOffset":48592,
			"target":34962
		},
		{
			"buffer":0,
			"byteLength":648,
			"byteOffset":49240,
			"target":34962
		},
		{
			"buffer":0,
			"byteLength":432,
			"byteOffset":49888,
			"target":34962
		},
		{
			"buffer":0,
			"byteLength":192,
			"byteOffset":50320,
			"target":34963
		}
	],
	"buffers":[
		{
			"byteLength":50512,
			"uri":"M1928Thompson-eb3545e1732010602bbb54d8c732149a.bin"
		}
	]
}
