{
	"asset":{
		"generator":"Khronos glTF Blender I/O v4.1.62",
		"version":"2.0"
	},
	"scene":0,
	"scenes":[
		{
			"name":"Scene",
			"nodes":[
				0,
				1,
				2,
				3
			]
		}
	],
	"nodes":[
		{
			"mesh":0,
			"name":"Trigger.002",
			"rotation":[
				0.70710688829422,
				0,
				0,
				0.7071066498756409
			],
			"translation":[
				0,
				-7,
				0
			]
		},
		{
			"mesh":1,
			"name":"MP5Magazene",
			"rotation":[
				0.70710688829422,
				0,
				0,
				0.7071066498756409
			],
			"translation":[
				0,
				-7,
				0
			]
		},
		{
			"mesh":2,
			"name":"MP5FullStock",
			"rotation":[
				0.70710688829422,
				0,
				0,
				0.7071066498756409
			],
			"translation":[
				0,
				-7,
				0
			]
		},
		{
			"mesh":3,
			"name":"MP5BodyFull",
			"rotation":[
				0.70710688829422,
				0,
				0,
				0.7071066498756409
			],
			"translation":[
				0,
				-7,
				0
			]
		}
	],
	"materials":[
		{
			"doubleSided":true,
			"name":"Material.039",
			"pbrMetallicRoughness":{
				"baseColorTexture":{
					"index":0
				},
				"metallicFactor":0,
				"roughnessFactor":0.5
			}
		},
		{
			"doubleSided":true,
			"name":"Material.037",
			"pbrMetallicRoughness":{
				"baseColorTexture":{
					"index":1
				},
				"metallicFactor":0,
				"roughnessFactor":0.5
			}
		},
		{
			"doubleSided":true,
			"name":"Material.036",
			"pbrMetallicRoughness":{
				"baseColorTexture":{
					"index":2
				},
				"metallicFactor":0,
				"roughnessFactor":0.5
			}
		},
		{
			"doubleSided":true,
			"name":"Material.035",
			"pbrMetallicRoughness":{
				"baseColorTexture":{
					"index":3
				},
				"metallicFactor":0,
				"roughnessFactor":0.5
			}
		}
	],
	"meshes":[
		{
			"name":"Trigger.002",
			"primitives":[
				{
					"attributes":{
						"POSITION":0,
						"NORMAL":1,
						"TEXCOORD_0":2,
						"TANGENT":3
					},
					"indices":4,
					"material":0
				}
			]
		},
		{
			"name":"MP5Magazene",
			"primitives":[
				{
					"attributes":{
						"POSITION":5,
						"NORMAL":6,
						"TEXCOORD_0":7,
						"TANGENT":8
					},
					"indices":9,
					"material":1
				}
			]
		},
		{
			"name":"MP5FullStock",
			"primitives":[
				{
					"attributes":{
						"POSITION":10,
						"NORMAL":11,
						"TEXCOORD_0":12,
						"TANGENT":13
					},
					"indices":14,
					"material":2
				}
			]
		},
		{
			"name":"MP5BodyFull",
			"primitives":[
				{
					"attributes":{
						"POSITION":15,
						"NORMAL":16,
						"TEXCOORD_0":17
					},
					"indices":18,
					"material":0
				},
				{
					"attributes":{
						"POSITION":19,
						"NORMAL":20,
						"TEXCOORD_0":21
					},
					"indices":22,
					"material":3
				}
			]
		}
	],
	"textures":[
		{
			"sampler":0,
			"source":0
		},
		{
			"sampler":0,
			"source":0
		},
		{
			"sampler":0,
			"source":0
		},
		{
			"sampler":0,
			"source":0
		}
	],
	"images":[
		{
			"mimeType":"image/jpeg",
			"name":"MP5Texture.jpg.002",
			"uri":"../../GameResources/Textures/Guns/MP5/MP5Texture.jpg"
		}
	],
	"accessors":[
		{
			"bufferView":0,
			"componentType":5126,
			"count":18,
			"max":[
				-0.2412330061197281,
				0.0005159999709576368,
				-7.874722003936768
			],
			"min":[
				-0.44235000014305115,
				0.0005159999709576368,
				-8.358407020568848
			],
			"type":"VEC3"
		},
		{
			"bufferView":1,
			"componentType":5126,
			"count":18,
			"type":"VEC3"
		},
		{
			"bufferView":2,
			"componentType":5126,
			"count":18,
			"type":"VEC2"
		},
		{
			"bufferView":3,
			"componentType":5126,
			"count":18,
			"type":"VEC4"
		},
		{
			"bufferView":4,
			"componentType":5123,
			"count":36,
			"type":"SCALAR"
		},
		{
			"bufferView":5,
			"componentType":5126,
			"count":48,
			"max":[
				1.143246054649353,
				0.10515300184488297,
				-6.775620937347412
			],
			"min":[
				0.20177899301052094,
				-0.10899899899959564,
				-8.730337142944336
			],
			"type":"VEC3"
		},
		{
			"bufferView":6,
			"componentType":5126,
			"count":48,
			"type":"VEC3"
		},
		{
			"bufferView":7,
			"componentType":5126,
			"count":48,
			"type":"VEC2"
		},
		{
			"bufferView":8,
			"componentType":5126,
			"count":48,
			"type":"VEC4"
		},
		{
			"bufferView":9,
			"componentType":5123,
			"count":132,
			"type":"SCALAR"
		},
		{
			"bufferView":10,
			"componentType":5126,
			"count":40,
			"max":[
				-1.187965989112854,
				0.20023299753665924,
				-7.684192180633545
			],
			"min":[
				-4.000672817230225,
				-0.20407800376415253,
				-9.211657524108887
			],
			"type":"VEC3"
		},
		{
			"bufferView":11,
			"componentType":5126,
			"count":40,
			"type":"VEC3"
		},
		{
			"bufferView":12,
			"componentType":5126,
			"count":40,
			"type":"VEC2"
		},
		{
			"bufferView":13,
			"componentType":5126,
			"count":40,
			"type":"VEC4"
		},
		{
			"bufferView":14,
			"componentType":5123,
			"count":96,
			"type":"SCALAR"
		},
		{
			"bufferView":15,
			"componentType":5126,
			"count":330,
			"max":[
				2.9699270725250244,
				0.20730599761009216,
				-7.242132186889648
			],
			"min":[
				-1.4264219999313354,
				-0.2073040008544922,
				-9.506551742553711
			],
			"type":"VEC3"
		},
		{
			"bufferView":16,
			"componentType":5126,
			"count":330,
			"type":"VEC3"
		},
		{
			"bufferView":17,
			"componentType":5126,
			"count":330,
			"type":"VEC2"
		},
		{
			"bufferView":18,
			"componentType":5123,
			"count":831,
			"type":"SCALAR"
		},
		{
			"bufferView":19,
			"componentType":5126,
			"count":14,
			"max":[
				1.502364993095398,
				0.23580600321292877,
				-9.11690616607666
			],
			"min":[
				1.2839709520339966,
				0.024512000381946564,
				-9.31595230102539
			],
			"type":"VEC3"
		},
		{
			"bufferView":20,
			"componentType":5126,
			"count":14,
			"type":"VEC3"
		},
		{
			"bufferView":21,
			"componentType":5126,
			"count":14,
			"type":"VEC2"
		},
		{
			"bufferView":22,
			"componentType":5123,
			"count":36,
			"type":"SCALAR"
		}
	],
	"bufferViews":[
		{
			"buffer":0,
			"byteLength":216,
			"byteOffset":0,
			"target":34962
		},
		{
			"buffer":0,
			"byteLength":216,
			"byteOffset":216,
			"target":34962
		},
		{
			"buffer":0,
			"byteLength":144,
			"byteOffset":432,
			"target":34962
		},
		{
			"buffer":0,
			"byteLength":288,
			"byteOffset":576,
			"target":34962
		},
		{
			"buffer":0,
			"byteLength":72,
			"byteOffset":864,
			"target":34963
		},
		{
			"buffer":0,
			"byteLength":576,
			"byteOffset":936,
			"target":34962
		},
		{
			"buffer":0,
			"byteLength":576,
			"byteOffset":1512,
			"target":34962
		},
		{
			"buffer":0,
			"byteLength":384,
			"byteOffset":2088,
			"target":34962
		},
		{
			"buffer":0,
			"byteLength":768,
			"byteOffset":2472,
			"target":34962
		},
		{
			"buffer":0,
			"byteLength":264,
			"byteOffset":3240,
			"target":34963
		},
		{
			"buffer":0,
			"byteLength":480,
			"byteOffset":3504,
			"target":34962
		},
		{
			"buffer":0,
			"byteLength":480,
			"byteOffset":3984,
			"target":34962
		},
		{
			"buffer":0,
			"byteLength":320,
			"byteOffset":4464,
			"target":34962
		},
		{
			"buffer":0,
			"byteLength":640,
			"byteOffset":4784,
			"target":34962
		},
		{
			"buffer":0,
			"byteLength":192,
			"byteOffset":5424,
			"target":34963
		},
		{
			"buffer":0,
			"byteLength":3960,
			"byteOffset":5616,
			"target":34962
		},
		{
			"buffer":0,
			"byteLength":3960,
			"byteOffset":9576,
			"target":34962
		},
		{
			"buffer":0,
			"byteLength":2640,
			"byteOffset":13536,
			"target":34962
		},
		{
			"buffer":0,
			"byteLength":1662,
			"byteOffset":16176,
			"target":34963
		},
		{
			"buffer":0,
			"byteLength":168,
			"byteOffset":17840,
			"target":34962
		},
		{
			"buffer":0,
			"byteLength":168,
			"byteOffset":18008,
			"target":34962
		},
		{
			"buffer":0,
			"byteLength":112,
			"byteOffset":18176,
			"target":34962
		},
		{
			"buffer":0,
			"byteLength":72,
			"byteOffset":18288,
			"target":34963
		}
	],
	"samplers":[
		{
			"magFilter":9729,
			"minFilter":9987
		}
	],
	"buffers":[
		{
			"byteLength":18360,
			"uri":"MP5FullStock-6ee90895c8e182f16fb8070b6c92bbd8.bin"
		}
	]
}
