{
	"asset":{
		"generator":"Khronos glTF Blender I/O v4.1.62",
		"version":"2.0"
	},
	"scene":0,
	"scenes":[
		{
			"name":"Scene",
			"nodes":[
				0,
				1,
				2,
				3
			]
		}
	],
	"nodes":[
		{
			"mesh":0,
			"name":"MP5BodySilenced.004",
			"rotation":[
				0.70710688829422,
				0,
				0,
				0.7071066498756409
			],
			"translation":[
				0,
				-0.7932330369949341,
				0
			]
		},
		{
			"mesh":1,
			"name":"MP5Magazene.003",
			"rotation":[
				0.70710688829422,
				0,
				0,
				0.7071066498756409
			],
			"translation":[
				0,
				-0.7932330369949341,
				0
			]
		},
		{
			"mesh":2,
			"name":"MP5SlidingStock",
			"rotation":[
				0.70710688829422,
				0,
				0,
				0.7071066498756409
			],
			"translation":[
				0,
				-0.7932330369949341,
				0
			]
		},
		{
			"mesh":3,
			"name":"Trigger.004",
			"rotation":[
				0.70710688829422,
				0,
				0,
				0.7071066498756409
			],
			"translation":[
				0,
				-0.7932330369949341,
				0
			]
		}
	],
	"materials":[
		{
			"doubleSided":true,
			"name":"Material.036",
			"pbrMetallicRoughness":{
				"baseColorTexture":{
					"index":0
				},
				"metallicFactor":0,
				"roughnessFactor":0.5
			}
		},
		{
			"doubleSided":true,
			"name":"Material.035",
			"pbrMetallicRoughness":{
				"baseColorTexture":{
					"index":1
				},
				"metallicFactor":0,
				"roughnessFactor":0.5
			}
		},
		{
			"doubleSided":true,
			"name":"Material.037",
			"pbrMetallicRoughness":{
				"baseColorTexture":{
					"index":2
				},
				"metallicFactor":0,
				"roughnessFactor":0.5
			}
		},
		{
			"doubleSided":true,
			"name":"Material.038",
			"pbrMetallicRoughness":{
				"baseColorTexture":{
					"index":3
				},
				"metallicFactor":0,
				"roughnessFactor":0.5
			}
		},
		{
			"doubleSided":true,
			"name":"Material.039",
			"pbrMetallicRoughness":{
				"baseColorTexture":{
					"index":4
				},
				"metallicFactor":0,
				"roughnessFactor":0.5
			}
		}
	],
	"meshes":[
		{
			"name":"MP5BodySilenced.004",
			"primitives":[
				{
					"attributes":{
						"POSITION":0,
						"NORMAL":1,
						"TEXCOORD_0":2
					},
					"indices":3,
					"material":0
				},
				{
					"attributes":{
						"POSITION":4,
						"NORMAL":5,
						"TEXCOORD_0":6
					},
					"indices":7,
					"material":1
				}
			]
		},
		{
			"name":"MP5Magazene.003",
			"primitives":[
				{
					"attributes":{
						"POSITION":8,
						"NORMAL":9,
						"TEXCOORD_0":10,
						"TANGENT":11
					},
					"indices":12,
					"material":2
				}
			]
		},
		{
			"name":"MP5SlidingStock",
			"primitives":[
				{
					"attributes":{
						"POSITION":13,
						"NORMAL":14,
						"TEXCOORD_0":15,
						"TANGENT":16
					},
					"indices":17,
					"material":3
				}
			]
		},
		{
			"name":"Trigger.004",
			"primitives":[
				{
					"attributes":{
						"POSITION":18,
						"NORMAL":19,
						"TEXCOORD_0":20,
						"TANGENT":21
					},
					"indices":22,
					"material":4
				}
			]
		}
	],
	"textures":[
		{
			"sampler":0,
			"source":0
		},
		{
			"sampler":0,
			"source":0
		},
		{
			"sampler":0,
			"source":0
		},
		{
			"sampler":0,
			"source":0
		},
		{
			"sampler":0,
			"source":0
		}
	],
	"images":[
		{
			"mimeType":"image/jpeg",
			"name":"MP5Texture.jpg.001",
			"uri":"../../GameResources/Textures/Guns/MP5/MP5Texture.jpg"
		}
	],
	"accessors":[
		{
			"bufferView":0,
			"componentType":5126,
			"count":267,
			"max":[
				4.046404838562012,
				0.2856709957122803,
				-1.3058489561080933
			],
			"min":[
				-1.4264219999313354,
				-0.2856700122356415,
				-3.5702691078186035
			],
			"type":"VEC3"
		},
		{
			"bufferView":1,
			"componentType":5126,
			"count":267,
			"type":"VEC3"
		},
		{
			"bufferView":2,
			"componentType":5126,
			"count":267,
			"type":"VEC2"
		},
		{
			"bufferView":3,
			"componentType":5123,
			"count":741,
			"type":"SCALAR"
		},
		{
			"bufferView":4,
			"componentType":5126,
			"count":14,
			"max":[
				1.502364993095398,
				0.23580500483512878,
				-3.184864044189453
			],
			"min":[
				1.2839709520339966,
				0.024512000381946564,
				-3.383908987045288
			],
			"type":"VEC3"
		},
		{
			"bufferView":5,
			"componentType":5126,
			"count":14,
			"type":"VEC3"
		},
		{
			"bufferView":6,
			"componentType":5126,
			"count":14,
			"type":"VEC2"
		},
		{
			"bufferView":7,
			"componentType":5123,
			"count":36,
			"type":"SCALAR"
		},
		{
			"bufferView":8,
			"componentType":5126,
			"count":48,
			"max":[
				1.143246054649353,
				0.10515200346708298,
				-0.8393380045890808
			],
			"min":[
				0.20177899301052094,
				-0.10899999737739563,
				-2.7940549850463867
			],
			"type":"VEC3"
		},
		{
			"bufferView":9,
			"componentType":5126,
			"count":48,
			"type":"VEC3"
		},
		{
			"bufferView":10,
			"componentType":5126,
			"count":48,
			"type":"VEC2"
		},
		{
			"bufferView":11,
			"componentType":5126,
			"count":48,
			"type":"VEC4"
		},
		{
			"bufferView":12,
			"componentType":5123,
			"count":132,
			"type":"SCALAR"
		},
		{
			"bufferView":13,
			"componentType":5126,
			"count":42,
			"max":[
				-1.1016379594802856,
				0.11306499689817429,
				-2.2341060638427734
			],
			"min":[
				-3.553678035736084,
				-0.11423200368881226,
				-3.1652510166168213
			],
			"type":"VEC3"
		},
		{
			"bufferView":14,
			"componentType":5126,
			"count":42,
			"type":"VEC3"
		},
		{
			"bufferView":15,
			"componentType":5126,
			"count":42,
			"type":"VEC2"
		},
		{
			"bufferView":16,
			"componentType":5126,
			"count":42,
			"type":"VEC4"
		},
		{
			"bufferView":17,
			"componentType":5123,
			"count":72,
			"type":"SCALAR"
		},
		{
			"bufferView":18,
			"componentType":5126,
			"count":12,
			"max":[
				-0.2412330061197281,
				0.0005150000215508044,
				-1.9384390115737915
			],
			"min":[
				-0.44235000014305115,
				0.0005150000215508044,
				-2.422123908996582
			],
			"type":"VEC3"
		},
		{
			"bufferView":19,
			"componentType":5126,
			"count":12,
			"type":"VEC3"
		},
		{
			"bufferView":20,
			"componentType":5126,
			"count":12,
			"type":"VEC2"
		},
		{
			"bufferView":21,
			"componentType":5126,
			"count":12,
			"type":"VEC4"
		},
		{
			"bufferView":22,
			"componentType":5123,
			"count":24,
			"type":"SCALAR"
		}
	],
	"bufferViews":[
		{
			"buffer":0,
			"byteLength":3204,
			"byteOffset":0,
			"target":34962
		},
		{
			"buffer":0,
			"byteLength":3204,
			"byteOffset":3204,
			"target":34962
		},
		{
			"buffer":0,
			"byteLength":2136,
			"byteOffset":6408,
			"target":34962
		},
		{
			"buffer":0,
			"byteLength":1482,
			"byteOffset":8544,
			"target":34963
		},
		{
			"buffer":0,
			"byteLength":168,
			"byteOffset":10028,
			"target":34962
		},
		{
			"buffer":0,
			"byteLength":168,
			"byteOffset":10196,
			"target":34962
		},
		{
			"buffer":0,
			"byteLength":112,
			"byteOffset":10364,
			"target":34962
		},
		{
			"buffer":0,
			"byteLength":72,
			"byteOffset":10476,
			"target":34963
		},
		{
			"buffer":0,
			"byteLength":576,
			"byteOffset":10548,
			"target":34962
		},
		{
			"buffer":0,
			"byteLength":576,
			"byteOffset":11124,
			"target":34962
		},
		{
			"buffer":0,
			"byteLength":384,
			"byteOffset":11700,
			"target":34962
		},
		{
			"buffer":0,
			"byteLength":768,
			"byteOffset":12084,
			"target":34962
		},
		{
			"buffer":0,
			"byteLength":264,
			"byteOffset":12852,
			"target":34963
		},
		{
			"buffer":0,
			"byteLength":504,
			"byteOffset":13116,
			"target":34962
		},
		{
			"buffer":0,
			"byteLength":504,
			"byteOffset":13620,
			"target":34962
		},
		{
			"buffer":0,
			"byteLength":336,
			"byteOffset":14124,
			"target":34962
		},
		{
			"buffer":0,
			"byteLength":672,
			"byteOffset":14460,
			"target":34962
		},
		{
			"buffer":0,
			"byteLength":144,
			"byteOffset":15132,
			"target":34963
		},
		{
			"buffer":0,
			"byteLength":144,
			"byteOffset":15276,
			"target":34962
		},
		{
			"buffer":0,
			"byteLength":144,
			"byteOffset":15420,
			"target":34962
		},
		{
			"buffer":0,
			"byteLength":96,
			"byteOffset":15564,
			"target":34962
		},
		{
			"buffer":0,
			"byteLength":192,
			"byteOffset":15660,
			"target":34962
		},
		{
			"buffer":0,
			"byteLength":48,
			"byteOffset":15852,
			"target":34963
		}
	],
	"samplers":[
		{
			"magFilter":9729,
			"minFilter":9987
		}
	],
	"buffers":[
		{
			"byteLength":15900,
			"uri":"MP5SD-1af049ff371be4deb05c4cb89574ac39.bin"
		}
	]
}
