{
	"asset":{
		"generator":"Khronos glTF Blender I/O v4.1.62",
		"version":"2.0"
	},
	"extensionsUsed":[
		"KHR_materials_specular",
		"KHR_materials_ior"
	],
	"scene":0,
	"scenes":[
		{
			"name":"Scene",
			"nodes":[
				0
			]
		}
	],
	"nodes":[
		{
			"mesh":0,
			"name":"Pier02",
			"rotation":[
				0,
				0.7071068286895752,
				0,
				0.7071068286895752
			]
		}
	],
	"materials":[
		{
			"doubleSided":true,
			"extensions":{
				"KHR_materials_specular":{
					"specularFactor":0.10000000149011612
				},
				"KHR_materials_ior":{
					"ior":1.4500000476837158
				}
			},
			"name":"Material",
			"pbrMetallicRoughness":{
				"metallicFactor":0,
				"roughnessFactor":0
			}
		}
	],
	"meshes":[
		{
			"name":"Cube.013",
			"primitives":[
				{
					"attributes":{
						"POSITION":0,
						"NORMAL":1,
						"TEXCOORD_0":2,
						"TANGENT":3
					},
					"indices":4,
					"material":0
				}
			]
		}
	],
	"accessors":[
		{
			"bufferView":0,
			"componentType":5126,
			"count":1427,
			"max":[
				3.2876296043395996,
				6.2624311447143555,
				2.365849018096924
			],
			"min":[
				-2.3481550216674805,
				-0.007904529571533203,
				-2.3601999282836914
			],
			"type":"VEC3"
		},
		{
			"bufferView":1,
			"componentType":5126,
			"count":1427,
			"type":"VEC3"
		},
		{
			"bufferView":2,
			"componentType":5126,
			"count":1427,
			"type":"VEC2"
		},
		{
			"bufferView":3,
			"componentType":5126,
			"count":1427,
			"type":"VEC4"
		},
		{
			"bufferView":4,
			"componentType":5123,
			"count":2724,
			"type":"SCALAR"
		}
	],
	"bufferViews":[
		{
			"buffer":0,
			"byteLength":17124,
			"byteOffset":0,
			"target":34962
		},
		{
			"buffer":0,
			"byteLength":17124,
			"byteOffset":17124,
			"target":34962
		},
		{
			"buffer":0,
			"byteLength":11416,
			"byteOffset":34248,
			"target":34962
		},
		{
			"buffer":0,
			"byteLength":22832,
			"byteOffset":45664,
			"target":34962
		},
		{
			"buffer":0,
			"byteLength":5448,
			"byteOffset":68496,
			"target":34963
		}
	],
	"buffers":[
		{
			"byteLength":73944,
			"uri":"Pier02-9a0a990798626325531271dd668aec33.bin"
		}
	]
}
