{
	"asset":{
		"generator":"Khronos glTF Blender I/O v4.1.62",
		"version":"2.0"
	},
	"scene":0,
	"scenes":[
		{
			"name":"Scene",
			"nodes":[
				0,
				1
			]
		}
	],
	"nodes":[
		{
			"mesh":0,
			"name":"Cone"
		},
		{
			"mesh":1,
			"name":"Cone.001",
			"scale":[
				0.6465182304382324,
				1,
				0.6465182304382324
			],
			"translation":[
				0,
				0.08657895773649216,
				0
			]
		}
	],
	"materials":[
		{
			"doubleSided":true,
			"name":"Material.001",
			"pbrMetallicRoughness":{
				"metallicFactor":0,
				"roughnessFactor":0.5
			}
		},
		{
			"doubleSided":true,
			"name":"Material.002",
			"pbrMetallicRoughness":{
				"metallicFactor":0,
				"roughnessFactor":0.5
			}
		}
	],
	"meshes":[
		{
			"name":"Cone.001",
			"primitives":[
				{
					"attributes":{
						"POSITION":0,
						"NORMAL":1,
						"TEXCOORD_0":2,
						"TANGENT":3
					},
					"indices":4,
					"material":0
				}
			]
		},
		{
			"name":"Cone.002",
			"primitives":[
				{
					"attributes":{
						"POSITION":5,
						"NORMAL":6,
						"TEXCOORD_0":7,
						"TANGENT":8
					},
					"indices":4,
					"material":1
				}
			]
		}
	],
	"accessors":[
		{
			"bufferView":0,
			"componentType":5126,
			"count":140,
			"max":[
				0.9989930391311646,
				1,
				0.9959743022918701
			],
			"min":[
				-0.9989930391311646,
				-1,
				-1
			],
			"type":"VEC3"
		},
		{
			"bufferView":1,
			"componentType":5126,
			"count":140,
			"type":"VEC3"
		},
		{
			"bufferView":2,
			"componentType":5126,
			"count":140,
			"type":"VEC2"
		},
		{
			"bufferView":3,
			"componentType":5126,
			"count":140,
			"type":"VEC4"
		},
		{
			"bufferView":4,
			"componentType":5123,
			"count":210,
			"type":"SCALAR"
		},
		{
			"bufferView":5,
			"componentType":5126,
			"count":140,
			"max":[
				0.9989930391311646,
				1,
				0.9959743022918701
			],
			"min":[
				-0.9989930391311646,
				-1,
				-1
			],
			"type":"VEC3"
		},
		{
			"bufferView":6,
			"componentType":5126,
			"count":140,
			"type":"VEC3"
		},
		{
			"bufferView":7,
			"componentType":5126,
			"count":140,
			"type":"VEC2"
		},
		{
			"bufferView":8,
			"componentType":5126,
			"count":140,
			"type":"VEC4"
		}
	],
	"bufferViews":[
		{
			"buffer":0,
			"byteLength":1680,
			"byteOffset":0,
			"target":34962
		},
		{
			"buffer":0,
			"byteLength":1680,
			"byteOffset":1680,
			"target":34962
		},
		{
			"buffer":0,
			"byteLength":1120,
			"byteOffset":3360,
			"target":34962
		},
		{
			"buffer":0,
			"byteLength":2240,
			"byteOffset":4480,
			"target":34962
		},
		{
			"buffer":0,
			"byteLength":420,
			"byteOffset":6720,
			"target":34963
		},
		{
			"buffer":0,
			"byteLength":1680,
			"byteOffset":7140,
			"target":34962
		},
		{
			"buffer":0,
			"byteLength":1680,
			"byteOffset":8820,
			"target":34962
		},
		{
			"buffer":0,
			"byteLength":1120,
			"byteOffset":10500,
			"target":34962
		},
		{
			"buffer":0,
			"byteLength":2240,
			"byteOffset":11620,
			"target":34962
		}
	],
	"buffers":[
		{
			"byteLength":13860,
			"uri":"ps1VolumetricLight-46f9f6126e5595d74866bd1963d83418.bin"
		}
	]
}
