{
	"asset":{
		"generator":"Khronos glTF Blender I/O v4.1.62",
		"version":"2.0"
	},
	"scene":0,
	"scenes":[
		{
			"name":"Scene",
			"nodes":[
				0,
				1,
				2,
				3,
				4
			]
		}
	],
	"nodes":[
		{
			"mesh":0,
			"name":"PABody&Barrel",
			"rotation":[
				0.70710688829422,
				0,
				0,
				0.7071066498756409
			],
			"scale":[
				2,
				2,
				2
			],
			"translation":[
				-0.5055109858512878,
				0.6440713405609131,
				0
			]
		},
		{
			"mesh":1,
			"name":"Pump.001",
			"rotation":[
				0.70710688829422,
				0,
				0,
				0.7071066498756409
			],
			"scale":[
				2,
				2,
				2
			],
			"translation":[
				1.7033319473266602,
				0.7220134735107422,
				0
			]
		},
		{
			"mesh":2,
			"name":"ShellLowPolyGreen.002",
			"rotation":[
				0.70710688829422,
				0,
				0,
				0.7071066498756409
			],
			"translation":[
				-0.5516210198402405,
				0.4144434928894043,
				0
			]
		},
		{
			"mesh":3,
			"name":"ShellLowPolyRed.002",
			"rotation":[
				0.70710688829422,
				0,
				0,
				0.7071066498756409
			],
			"translation":[
				-0.4919907748699188,
				0.4143376052379608,
				0
			]
		},
		{
			"mesh":4,
			"name":"Trigger",
			"rotation":[
				0.70710688829422,
				0,
				0,
				0.7071066498756409
			],
			"scale":[
				2,
				2,
				2
			],
			"translation":[
				-1.1597321033477783,
				0.5505015254020691,
				0
			]
		}
	],
	"materials":[
		{
			"alphaMode":"BLEND",
			"doubleSided":true,
			"name":"Material.121",
			"pbrMetallicRoughness":{
				"baseColorTexture":{
					"index":0
				},
				"metallicFactor":0,
				"roughnessFactor":0.5
			}
		},
		{
			"alphaMode":"BLEND",
			"doubleSided":true,
			"name":"Material.124",
			"pbrMetallicRoughness":{
				"baseColorTexture":{
					"index":1
				},
				"metallicFactor":0,
				"roughnessFactor":0.5
			}
		},
		{
			"doubleSided":true,
			"name":"Material.127",
			"pbrMetallicRoughness":{
				"baseColorTexture":{
					"index":2
				},
				"metallicFactor":0,
				"roughnessFactor":0.5
			}
		},
		{
			"doubleSided":true,
			"name":"Material.135",
			"pbrMetallicRoughness":{
				"baseColorTexture":{
					"index":3
				},
				"metallicFactor":0,
				"roughnessFactor":0.5
			}
		},
		{
			"doubleSided":true,
			"name":"Material.141",
			"pbrMetallicRoughness":{
				"baseColorTexture":{
					"index":4
				},
				"metallicFactor":0,
				"roughnessFactor":0.5
			}
		}
	],
	"meshes":[
		{
			"name":"PABody&Barrel.006",
			"primitives":[
				{
					"attributes":{
						"POSITION":0,
						"NORMAL":1,
						"TEXCOORD_0":2,
						"TANGENT":3
					},
					"indices":4,
					"material":0
				}
			]
		},
		{
			"name":"Pump.007",
			"primitives":[
				{
					"attributes":{
						"POSITION":5,
						"NORMAL":6,
						"TEXCOORD_0":7,
						"TANGENT":8
					},
					"indices":9,
					"material":1
				}
			]
		},
		{
			"name":"ShellLowPolyGreen.033",
			"primitives":[
				{
					"attributes":{
						"POSITION":10,
						"NORMAL":11,
						"TEXCOORD_0":12,
						"TANGENT":13
					},
					"indices":14,
					"material":2
				}
			]
		},
		{
			"name":"ShellLowPolyRed.037",
			"primitives":[
				{
					"attributes":{
						"POSITION":15,
						"NORMAL":16,
						"TEXCOORD_0":17,
						"TANGENT":18
					},
					"indices":19,
					"material":3
				}
			]
		},
		{
			"name":"Trigger.012",
			"primitives":[
				{
					"attributes":{
						"POSITION":20,
						"NORMAL":21,
						"TEXCOORD_0":22,
						"TANGENT":23
					},
					"indices":24,
					"material":4
				}
			]
		}
	],
	"textures":[
		{
			"sampler":0,
			"source":0
		},
		{
			"sampler":0,
			"source":1
		},
		{
			"sampler":0,
			"source":2
		},
		{
			"sampler":0,
			"source":2
		},
		{
			"sampler":0,
			"source":3
		}
	],
	"images":[
		{
			"mimeType":"image/png",
			"name":"PAShotgunText.png.004",
			"uri":"../../GameResources/Textures/Guns/Remington870/PAShotgunText.png"
		},
		{
			"mimeType":"image/png",
			"name":"PAShotgunText.png.005",
			"uri":"../../GameResources/Textures/Guns/Remington870/PAShotgunText.png"
		},
		{
			"mimeType":"image/jpeg",
			"name":"shotgunShellTexture.jpg.003",
			"uri":"../../GameResources/Textures/Guns/Remington870/shotgunShellTexture.jpg"
		},
		{
			"mimeType":"image/png",
			"name":"PAShotgunText.png.001",
			"uri":"../../GameResources/Textures/Guns/Remington870/PAShotgunText.png"
		}
	],
	"accessors":[
		{
			"bufferView":0,
			"componentType":5126,
			"count":272,
			"max":[
				2.7825820446014404,
				0.10429999977350235,
				0.536231279373169
			],
			"min":[
				-1.7573308944702148,
				-0.10429999977350235,
				-0.2196636199951172
			],
			"type":"VEC3"
		},
		{
			"bufferView":1,
			"componentType":5126,
			"count":272,
			"type":"VEC3"
		},
		{
			"bufferView":2,
			"componentType":5126,
			"count":272,
			"type":"VEC2"
		},
		{
			"bufferView":3,
			"componentType":5126,
			"count":272,
			"type":"VEC4"
		},
		{
			"bufferView":4,
			"componentType":5123,
			"count":396,
			"type":"SCALAR"
		},
		{
			"bufferView":5,
			"componentType":5126,
			"count":52,
			"max":[
				0.43003690242767334,
				0.062049999833106995,
				0.12389850616455078
			],
			"min":[
				-0.41699308156967163,
				-0.062049999833106995,
				-0.07726144790649414
			],
			"type":"VEC3"
		},
		{
			"bufferView":6,
			"componentType":5126,
			"count":52,
			"type":"VEC3"
		},
		{
			"bufferView":7,
			"componentType":5126,
			"count":52,
			"type":"VEC2"
		},
		{
			"bufferView":8,
			"componentType":5126,
			"count":52,
			"type":"VEC4"
		},
		{
			"bufferView":9,
			"componentType":5123,
			"count":72,
			"type":"SCALAR"
		},
		{
			"bufferView":10,
			"componentType":5126,
			"count":44,
			"max":[
				0.024031996726989746,
				0.024032000452280045,
				0.07712650299072266
			],
			"min":[
				-0.024031996726989746,
				-0.024032000452280045,
				-0.10318756103515625
			],
			"type":"VEC3"
		},
		{
			"bufferView":11,
			"componentType":5126,
			"count":44,
			"type":"VEC3"
		},
		{
			"bufferView":12,
			"componentType":5126,
			"count":44,
			"type":"VEC2"
		},
		{
			"bufferView":13,
			"componentType":5126,
			"count":44,
			"type":"VEC4"
		},
		{
			"bufferView":14,
			"componentType":5123,
			"count":60,
			"type":"SCALAR"
		},
		{
			"bufferView":15,
			"componentType":5126,
			"count":44,
			"max":[
				0.024250775575637817,
				0.024250749498605728,
				0.07720255851745605
			],
			"min":[
				-0.02425023913383484,
				-0.024250250309705734,
				-0.1033632755279541
			],
			"type":"VEC3"
		},
		{
			"bufferView":16,
			"componentType":5126,
			"count":44,
			"type":"VEC3"
		},
		{
			"bufferView":17,
			"componentType":5126,
			"count":44,
			"type":"VEC2"
		},
		{
			"bufferView":18,
			"componentType":5126,
			"count":44,
			"type":"VEC4"
		},
		{
			"bufferView":19,
			"componentType":5123,
			"count":60,
			"type":"SCALAR"
		},
		{
			"bufferView":20,
			"componentType":5126,
			"count":10,
			"max":[
				0.029489219188690186,
				0,
				0.07063531875610352
			],
			"min":[
				-0.02121877670288086,
				0,
				-0.06386661529541016
			],
			"type":"VEC3"
		},
		{
			"bufferView":21,
			"componentType":5126,
			"count":10,
			"type":"VEC3"
		},
		{
			"bufferView":22,
			"componentType":5126,
			"count":10,
			"type":"VEC2"
		},
		{
			"bufferView":23,
			"componentType":5126,
			"count":10,
			"type":"VEC4"
		},
		{
			"bufferView":24,
			"componentType":5123,
			"count":18,
			"type":"SCALAR"
		}
	],
	"bufferViews":[
		{
			"buffer":0,
			"byteLength":3264,
			"byteOffset":0,
			"target":34962
		},
		{
			"buffer":0,
			"byteLength":3264,
			"byteOffset":3264,
			"target":34962
		},
		{
			"buffer":0,
			"byteLength":2176,
			"byteOffset":6528,
			"target":34962
		},
		{
			"buffer":0,
			"byteLength":4352,
			"byteOffset":8704,
			"target":34962
		},
		{
			"buffer":0,
			"byteLength":792,
			"byteOffset":13056,
			"target":34963
		},
		{
			"buffer":0,
			"byteLength":624,
			"byteOffset":13848,
			"target":34962
		},
		{
			"buffer":0,
			"byteLength":624,
			"byteOffset":14472,
			"target":34962
		},
		{
			"buffer":0,
			"byteLength":416,
			"byteOffset":15096,
			"target":34962
		},
		{
			"buffer":0,
			"byteLength":832,
			"byteOffset":15512,
			"target":34962
		},
		{
			"buffer":0,
			"byteLength":144,
			"byteOffset":16344,
			"target":34963
		},
		{
			"buffer":0,
			"byteLength":528,
			"byteOffset":16488,
			"target":34962
		},
		{
			"buffer":0,
			"byteLength":528,
			"byteOffset":17016,
			"target":34962
		},
		{
			"buffer":0,
			"byteLength":352,
			"byteOffset":17544,
			"target":34962
		},
		{
			"buffer":0,
			"byteLength":704,
			"byteOffset":17896,
			"target":34962
		},
		{
			"buffer":0,
			"byteLength":120,
			"byteOffset":18600,
			"target":34963
		},
		{
			"buffer":0,
			"byteLength":528,
			"byteOffset":18720,
			"target":34962
		},
		{
			"buffer":0,
			"byteLength":528,
			"byteOffset":19248,
			"target":34962
		},
		{
			"buffer":0,
			"byteLength":352,
			"byteOffset":19776,
			"target":34962
		},
		{
			"buffer":0,
			"byteLength":704,
			"byteOffset":20128,
			"target":34962
		},
		{
			"buffer":0,
			"byteLength":120,
			"byteOffset":20832,
			"target":34963
		},
		{
			"buffer":0,
			"byteLength":120,
			"byteOffset":20952,
			"target":34962
		},
		{
			"buffer":0,
			"byteLength":120,
			"byteOffset":21072,
			"target":34962
		},
		{
			"buffer":0,
			"byteLength":80,
			"byteOffset":21192,
			"target":34962
		},
		{
			"buffer":0,
			"byteLength":160,
			"byteOffset":21272,
			"target":34962
		},
		{
			"buffer":0,
			"byteLength":36,
			"byteOffset":21432,
			"target":34963
		}
	],
	"samplers":[
		{
			"magFilter":9729,
			"minFilter":9987
		}
	],
	"buffers":[
		{
			"byteLength":21468,
			"uri":"Remington870-37d492db284f8834947084be5bbb2189.bin"
		}
	]
}
