{
	"asset":{
		"generator":"Khronos glTF Blender I/O v4.1.62",
		"version":"2.0"
	},
	"scene":0,
	"scenes":[
		{
			"name":"Scene",
			"nodes":[
				0,
				1,
				2,
				3,
				4,
				5,
				6
			]
		}
	],
	"nodes":[
		{
			"mesh":0,
			"name":"BARilfeBody&Barrel"
		},
		{
			"mesh":1,
			"name":"BARifleBolt",
			"rotation":[
				0.70710688829422,
				0,
				0,
				0.7071066498756409
			],
			"translation":[
				-1.3171029090881348,
				2.5756983757019043,
				0.07310311496257782
			]
		},
		{
			"mesh":2,
			"name":"BARifleScope"
		},
		{
			"mesh":3,
			"name":"BARifleAmmo",
			"scale":[
				-0.0334569476544857,
				-0.0334569476544857,
				-0.0334569476544857
			],
			"translation":[
				-0.22038942575454712,
				1.9551955461502075,
				0.0005551818758249283
			]
		},
		{
			"mesh":4,
			"name":"BARilfeCasing",
			"scale":[
				-0.0334569476544857,
				-0.0334569476544857,
				-0.0334569476544857
			],
			"translation":[
				-0.11380046606063843,
				1.9551955461502075,
				0.0005551818758249283
			]
		},
		{
			"mesh":5,
			"name":"BARifleTrigger",
			"rotation":[
				0.70710688829422,
				0,
				0,
				0.7071066498756409
			],
			"translation":[
				-1.655122995376587,
				2.245680570602417,
				2.594292163848877e-05
			]
		},
		{
			"mesh":6,
			"name":"BARReticle"
		}
	],
	"materials":[
		{
			"alphaMode":"BLEND",
			"doubleSided":true,
			"name":"Material.065",
			"pbrMetallicRoughness":{
				"baseColorTexture":{
					"index":0
				},
				"metallicFactor":0,
				"roughnessFactor":0.5
			}
		},
		{
			"alphaMode":"BLEND",
			"doubleSided":true,
			"name":"Material.066",
			"pbrMetallicRoughness":{
				"baseColorTexture":{
					"index":1
				},
				"metallicFactor":0,
				"roughnessFactor":0.5
			}
		},
		{
			"doubleSided":true,
			"name":"Material.067",
			"pbrMetallicRoughness":{
				"baseColorTexture":{
					"index":2
				},
				"metallicFactor":0,
				"roughnessFactor":0.5
			}
		},
		{
			"doubleSided":true,
			"name":"Material.068",
			"pbrMetallicRoughness":{
				"baseColorTexture":{
					"index":3
				},
				"metallicFactor":0,
				"roughnessFactor":0.5
			}
		},
		{
			"doubleSided":true,
			"name":"Reticle",
			"pbrMetallicRoughness":{}
		}
	],
	"meshes":[
		{
			"name":"Cube.011",
			"primitives":[
				{
					"attributes":{
						"POSITION":0,
						"NORMAL":1,
						"TEXCOORD_0":2,
						"TANGENT":3
					},
					"indices":4,
					"material":0
				}
			]
		},
		{
			"name":"Plane.004",
			"primitives":[
				{
					"attributes":{
						"POSITION":5,
						"NORMAL":6,
						"TEXCOORD_0":7,
						"TANGENT":8
					},
					"indices":9,
					"material":1
				}
			]
		},
		{
			"name":"Cube.012",
			"primitives":[
				{
					"attributes":{
						"POSITION":10,
						"NORMAL":11,
						"TEXCOORD_0":12,
						"TANGENT":13
					},
					"indices":14,
					"material":2
				}
			]
		},
		{
			"name":"Cube.013",
			"primitives":[
				{
					"attributes":{
						"POSITION":15,
						"NORMAL":16,
						"TEXCOORD_0":17,
						"TANGENT":18
					},
					"indices":19,
					"material":3
				}
			]
		},
		{
			"name":"Cube.014",
			"primitives":[
				{
					"attributes":{
						"POSITION":20,
						"NORMAL":21,
						"TEXCOORD_0":22,
						"TANGENT":23
					},
					"indices":24,
					"material":3
				}
			]
		},
		{
			"name":"Plane.005",
			"primitives":[
				{
					"attributes":{
						"POSITION":25,
						"NORMAL":26,
						"TEXCOORD_0":27,
						"TANGENT":28
					},
					"indices":29,
					"material":1
				}
			]
		},
		{
			"name":"Cube.002",
			"primitives":[
				{
					"attributes":{
						"POSITION":30,
						"NORMAL":31,
						"TEXCOORD_0":32,
						"TANGENT":33
					},
					"indices":34,
					"material":4
				}
			]
		}
	],
	"textures":[
		{
			"sampler":0,
			"source":0
		},
		{
			"sampler":0,
			"source":0
		},
		{
			"sampler":0,
			"source":1
		},
		{
			"sampler":0,
			"source":2
		}
	],
	"images":[
		{
			"mimeType":"image/png",
			"name":"HuntingRifleText.png",
			"uri":"../../GameResources/Textures/Guns/Remington700/HuntingRifleText.png"
		},
		{
			"mimeType":"image/jpeg",
			"name":"ScopeText.jpg",
			"uri":"../../GameResources/Textures/Guns/Remington700/ScopeText.jpg"
		},
		{
			"mimeType":"image/jpeg",
			"name":"HuntingAmmoText.jpg",
			"uri":"../../GameResources/Textures/Guns/Remington700/HuntingAmmoText.jpg"
		}
	],
	"accessors":[
		{
			"bufferView":0,
			"componentType":5126,
			"count":198,
			"max":[
				4.509920120239258,
				2.9016518592834473,
				0.18418419361114502
			],
			"min":[
				-4.435011863708496,
				1.5208848714828491,
				-0.18418419361114502
			],
			"type":"VEC3"
		},
		{
			"bufferView":1,
			"componentType":5126,
			"count":198,
			"type":"VEC3"
		},
		{
			"bufferView":2,
			"componentType":5126,
			"count":198,
			"type":"VEC2"
		},
		{
			"bufferView":3,
			"componentType":5126,
			"count":198,
			"type":"VEC4"
		},
		{
			"bufferView":4,
			"componentType":5123,
			"count":420,
			"type":"SCALAR"
		},
		{
			"bufferView":5,
			"componentType":5126,
			"count":90,
			"max":[
				1.0342376232147217,
				0.15640147030353546,
				0.1727762371301651
			],
			"min":[
				-0.3152223229408264,
				-0.13792110979557037,
				-0.2745155394077301
			],
			"type":"VEC3"
		},
		{
			"bufferView":6,
			"componentType":5126,
			"count":90,
			"type":"VEC3"
		},
		{
			"bufferView":7,
			"componentType":5126,
			"count":90,
			"type":"VEC2"
		},
		{
			"bufferView":8,
			"componentType":5126,
			"count":90,
			"type":"VEC4"
		},
		{
			"bufferView":9,
			"componentType":5123,
			"count":126,
			"type":"SCALAR"
		},
		{
			"bufferView":10,
			"componentType":5126,
			"count":144,
			"max":[
				0.32886528968811035,
				3.300036907196045,
				0.20081676542758942
			],
			"min":[
				-1.6085851192474365,
				2.8223953247070312,
				-0.17463521659374237
			],
			"type":"VEC3"
		},
		{
			"bufferView":11,
			"componentType":5126,
			"count":144,
			"type":"VEC3"
		},
		{
			"bufferView":12,
			"componentType":5126,
			"count":144,
			"type":"VEC2"
		},
		{
			"bufferView":13,
			"componentType":5126,
			"count":144,
			"type":"VEC4"
		},
		{
			"bufferView":14,
			"componentType":5123,
			"count":216,
			"type":"SCALAR"
		},
		{
			"bufferView":15,
			"componentType":5126,
			"count":66,
			"max":[
				1,
				4.102713108062744,
				1
			],
			"min":[
				-1,
				-11.778373718261719,
				-1
			],
			"type":"VEC3"
		},
		{
			"bufferView":16,
			"componentType":5126,
			"count":66,
			"type":"VEC3"
		},
		{
			"bufferView":17,
			"componentType":5126,
			"count":66,
			"type":"VEC2"
		},
		{
			"bufferView":18,
			"componentType":5126,
			"count":66,
			"type":"VEC4"
		},
		{
			"bufferView":19,
			"componentType":5123,
			"count":90,
			"type":"SCALAR"
		},
		{
			"bufferView":20,
			"componentType":5126,
			"count":58,
			"max":[
				1,
				4.102713108062744,
				1
			],
			"min":[
				-1,
				-7.72253942489624,
				-1
			],
			"type":"VEC3"
		},
		{
			"bufferView":21,
			"componentType":5126,
			"count":58,
			"type":"VEC3"
		},
		{
			"bufferView":22,
			"componentType":5126,
			"count":58,
			"type":"VEC2"
		},
		{
			"bufferView":23,
			"componentType":5126,
			"count":58,
			"type":"VEC4"
		},
		{
			"bufferView":24,
			"componentType":5123,
			"count":84,
			"type":"SCALAR"
		},
		{
			"bufferView":25,
			"componentType":5126,
			"count":12,
			"max":[
				0.059198081493377686,
				0,
				0.14763143658638
			],
			"min":[
				-0.047236502170562744,
				0,
				-0.1068187803030014
			],
			"type":"VEC3"
		},
		{
			"bufferView":26,
			"componentType":5126,
			"count":12,
			"type":"VEC3"
		},
		{
			"bufferView":27,
			"componentType":5126,
			"count":12,
			"type":"VEC2"
		},
		{
			"bufferView":28,
			"componentType":5126,
			"count":12,
			"type":"VEC4"
		},
		{
			"bufferView":29,
			"componentType":5123,
			"count":24,
			"type":"SCALAR"
		},
		{
			"bufferView":30,
			"componentType":5126,
			"count":4,
			"max":[
				-0.4895135760307312,
				3.2130942344665527,
				0.1149313896894455
			],
			"min":[
				-0.48962563276290894,
				2.9769492149353027,
				-0.13351348042488098
			],
			"type":"VEC3"
		},
		{
			"bufferView":31,
			"componentType":5126,
			"count":4,
			"type":"VEC3"
		},
		{
			"bufferView":32,
			"componentType":5126,
			"count":4,
			"type":"VEC2"
		},
		{
			"bufferView":33,
			"componentType":5126,
			"count":4,
			"type":"VEC4"
		},
		{
			"bufferView":34,
			"componentType":5123,
			"count":6,
			"type":"SCALAR"
		}
	],
	"bufferViews":[
		{
			"buffer":0,
			"byteLength":2376,
			"byteOffset":0,
			"target":34962
		},
		{
			"buffer":0,
			"byteLength":2376,
			"byteOffset":2376,
			"target":34962
		},
		{
			"buffer":0,
			"byteLength":1584,
			"byteOffset":4752,
			"target":34962
		},
		{
			"buffer":0,
			"byteLength":3168,
			"byteOffset":6336,
			"target":34962
		},
		{
			"buffer":0,
			"byteLength":840,
			"byteOffset":9504,
			"target":34963
		},
		{
			"buffer":0,
			"byteLength":1080,
			"byteOffset":10344,
			"target":34962
		},
		{
			"buffer":0,
			"byteLength":1080,
			"byteOffset":11424,
			"target":34962
		},
		{
			"buffer":0,
			"byteLength":720,
			"byteOffset":12504,
			"target":34962
		},
		{
			"buffer":0,
			"byteLength":1440,
			"byteOffset":13224,
			"target":34962
		},
		{
			"buffer":0,
			"byteLength":252,
			"byteOffset":14664,
			"target":34963
		},
		{
			"buffer":0,
			"byteLength":1728,
			"byteOffset":14916,
			"target":34962
		},
		{
			"buffer":0,
			"byteLength":1728,
			"byteOffset":16644,
			"target":34962
		},
		{
			"buffer":0,
			"byteLength":1152,
			"byteOffset":18372,
			"target":34962
		},
		{
			"buffer":0,
			"byteLength":2304,
			"byteOffset":19524,
			"target":34962
		},
		{
			"buffer":0,
			"byteLength":432,
			"byteOffset":21828,
			"target":34963
		},
		{
			"buffer":0,
			"byteLength":792,
			"byteOffset":22260,
			"target":34962
		},
		{
			"buffer":0,
			"byteLength":792,
			"byteOffset":23052,
			"target":34962
		},
		{
			"buffer":0,
			"byteLength":528,
			"byteOffset":23844,
			"target":34962
		},
		{
			"buffer":0,
			"byteLength":1056,
			"byteOffset":24372,
			"target":34962
		},
		{
			"buffer":0,
			"byteLength":180,
			"byteOffset":25428,
			"target":34963
		},
		{
			"buffer":0,
			"byteLength":696,
			"byteOffset":25608,
			"target":34962
		},
		{
			"buffer":0,
			"byteLength":696,
			"byteOffset":26304,
			"target":34962
		},
		{
			"buffer":0,
			"byteLength":464,
			"byteOffset":27000,
			"target":34962
		},
		{
			"buffer":0,
			"byteLength":928,
			"byteOffset":27464,
			"target":34962
		},
		{
			"buffer":0,
			"byteLength":168,
			"byteOffset":28392,
			"target":34963
		},
		{
			"buffer":0,
			"byteLength":144,
			"byteOffset":28560,
			"target":34962
		},
		{
			"buffer":0,
			"byteLength":144,
			"byteOffset":28704,
			"target":34962
		},
		{
			"buffer":0,
			"byteLength":96,
			"byteOffset":28848,
			"target":34962
		},
		{
			"buffer":0,
			"byteLength":192,
			"byteOffset":28944,
			"target":34962
		},
		{
			"buffer":0,
			"byteLength":48,
			"byteOffset":29136,
			"target":34963
		},
		{
			"buffer":0,
			"byteLength":48,
			"byteOffset":29184,
			"target":34962
		},
		{
			"buffer":0,
			"byteLength":48,
			"byteOffset":29232,
			"target":34962
		},
		{
			"buffer":0,
			"byteLength":32,
			"byteOffset":29280,
			"target":34962
		},
		{
			"buffer":0,
			"byteLength":64,
			"byteOffset":29312,
			"target":34962
		},
		{
			"buffer":0,
			"byteLength":12,
			"byteOffset":29376,
			"target":34963
		}
	],
	"samplers":[
		{
			"magFilter":9729,
			"minFilter":9987
		}
	],
	"buffers":[
		{
			"byteLength":29388,
			"uri":"Remington700-c649313d79a714f09ed6eabd5c0bf8cd.bin"
		}
	]
}
