{
	"asset":{
		"generator":"Khronos glTF Blender I/O v4.1.62",
		"version":"2.0"
	},
	"extensionsUsed":[
		"KHR_materials_specular"
	],
	"scene":0,
	"scenes":[
		{
			"name":"Scene",
			"nodes":[
				0,
				1,
				2,
				3,
				4,
				5
			]
		}
	],
	"nodes":[
		{
			"mesh":0,
			"name":"BarbedWire",
			"scale":[
				0.050000011920928955,
				0.050000011920928955,
				0.050000011920928955
			],
			"translation":[
				0,
				0,
				2.4000000953674316
			]
		},
		{
			"mesh":1,
			"name":"Sandbag",
			"rotation":[
				0,
				-1,
				0,
				7.549790126404332e-08
			],
			"scale":[
				0.5,
				0.5,
				0.5
			]
		},
		{
			"mesh":2,
			"name":"BarbedWire2",
			"rotation":[
				0.7071068286895752,
				0,
				0,
				0.7071068286895752
			],
			"scale":[
				0.010000001639127731,
				0.010000001639127731,
				0.010000001639127731
			],
			"translation":[
				0,
				0,
				-1.899999976158142
			]
		},
		{
			"mesh":3,
			"name":"BarbedWire3",
			"rotation":[
				0.7071068286895752,
				0,
				0,
				0.7071068286895752
			],
			"scale":[
				0.010000001639127731,
				0.010000001639127731,
				0.010000001639127731
			],
			"translation":[
				1,
				0,
				-1.899999976158142
			]
		},
		{
			"mesh":4,
			"name":"DeadTree",
			"scale":[
				0.11999999731779099,
				0.11999999731779099,
				0.11999999731779099
			],
			"translation":[
				1,
				0.19524118304252625,
				-0.0017442703247070312
			]
		},
		{
			"mesh":5,
			"name":"DeadTree2",
			"scale":[
				0.11999999731779099,
				0.11999999731779099,
				0.11999999731779099
			],
			"translation":[
				1,
				0.19524118304252625,
				2.3982558250427246
			]
		}
	],
	"materials":[
		{
			"doubleSided":true,
			"extensions":{
				"KHR_materials_specular":{
					"specularFactor":0
				}
			},
			"name":"Fence2",
			"pbrMetallicRoughness":{
				"metallicFactor":0,
				"roughnessFactor":0.5
			}
		},
		{
			"alphaMode":"BLEND",
			"doubleSided":true,
			"extensions":{
				"KHR_materials_specular":{
					"specularFactor":0
				}
			},
			"name":"BarbedWireTEXTURE",
			"pbrMetallicRoughness":{
				"metallicFactor":0,
				"roughnessFactor":0.5
			}
		},
		{
			"doubleSided":true,
			"extensions":{
				"KHR_materials_specular":{
					"specularFactor":0
				}
			},
			"name":"Sandbag",
			"pbrMetallicRoughness":{
				"metallicFactor":0,
				"roughnessFactor":0.5
			}
		},
		{
			"doubleSided":true,
			"extensions":{
				"KHR_materials_specular":{
					"specularFactor":0
				}
			},
			"name":"TreeWoodTEXTURE",
			"pbrMetallicRoughness":{
				"metallicFactor":0,
				"roughnessFactor":0.5
			}
		}
	],
	"meshes":[
		{
			"name":"Cylinder",
			"primitives":[
				{
					"attributes":{
						"POSITION":0,
						"NORMAL":1,
						"TEXCOORD_0":2
					},
					"indices":3,
					"material":0
				},
				{
					"attributes":{
						"POSITION":4,
						"NORMAL":5,
						"TEXCOORD_0":6
					},
					"indices":7,
					"material":1
				}
			]
		},
		{
			"name":"Cube.003",
			"primitives":[
				{
					"attributes":{
						"POSITION":8,
						"NORMAL":9,
						"TEXCOORD_0":10,
						"TANGENT":11
					},
					"indices":12,
					"material":2
				}
			]
		},
		{
			"name":"Cylinder.003",
			"primitives":[
				{
					"attributes":{
						"POSITION":13,
						"NORMAL":14,
						"TEXCOORD_0":15
					},
					"indices":16,
					"material":0
				},
				{
					"attributes":{
						"POSITION":17,
						"NORMAL":18,
						"TEXCOORD_0":19
					},
					"indices":20,
					"material":1
				}
			]
		},
		{
			"name":"Cylinder.013",
			"primitives":[
				{
					"attributes":{
						"POSITION":21,
						"NORMAL":22,
						"TEXCOORD_0":23,
						"TANGENT":24
					},
					"indices":20,
					"material":1
				}
			]
		},
		{
			"name":"Cylinder.002",
			"primitives":[
				{
					"attributes":{
						"POSITION":25,
						"NORMAL":26,
						"TEXCOORD_0":27
					},
					"indices":28,
					"material":3
				}
			]
		},
		{
			"name":"Cylinder.004",
			"primitives":[
				{
					"attributes":{
						"POSITION":29,
						"NORMAL":30,
						"TEXCOORD_0":31
					},
					"indices":32,
					"material":3
				}
			]
		}
	],
	"accessors":[
		{
			"bufferView":0,
			"componentType":5126,
			"count":72,
			"max":[
				0.8660253882408142,
				14.772345542907715,
				21.68248748779297
			],
			"min":[
				-0.8660253882408142,
				0,
				-21.68248748779297
			],
			"type":"VEC3"
		},
		{
			"bufferView":1,
			"componentType":5126,
			"count":72,
			"type":"VEC3"
		},
		{
			"bufferView":2,
			"componentType":5126,
			"count":72,
			"type":"VEC2"
		},
		{
			"bufferView":3,
			"componentType":5123,
			"count":120,
			"type":"SCALAR"
		},
		{
			"bufferView":4,
			"componentType":5126,
			"count":16,
			"max":[
				8.742276804696303e-07,
				13.154149055480957,
				19.999996185302734
			],
			"min":[
				-8.742276804696303e-07,
				1.1541504859924316,
				-20
			],
			"type":"VEC3"
		},
		{
			"bufferView":5,
			"componentType":5126,
			"count":16,
			"type":"VEC3"
		},
		{
			"bufferView":6,
			"componentType":5126,
			"count":16,
			"type":"VEC2"
		},
		{
			"bufferView":7,
			"componentType":5123,
			"count":24,
			"type":"SCALAR"
		},
		{
			"bufferView":8,
			"componentType":5126,
			"count":60,
			"max":[
				0.21000030636787415,
				0.9234216809272766,
				2
			],
			"min":[
				-0.2100001573562622,
				0,
				-2
			],
			"type":"VEC3"
		},
		{
			"bufferView":9,
			"componentType":5126,
			"count":60,
			"type":"VEC3"
		},
		{
			"bufferView":10,
			"componentType":5126,
			"count":60,
			"type":"VEC2"
		},
		{
			"bufferView":11,
			"componentType":5126,
			"count":60,
			"type":"VEC4"
		},
		{
			"bufferView":12,
			"componentType":5123,
			"count":108,
			"type":"SCALAR"
		},
		{
			"bufferView":13,
			"componentType":5126,
			"count":354,
			"max":[
				19.723690032958984,
				65.87142944335938,
				3.6541385650634766
			],
			"min":[
				-19.944499969482422,
				-53.17550277709961,
				-36.01404571533203
			],
			"type":"VEC3"
		},
		{
			"bufferView":14,
			"componentType":5126,
			"count":354,
			"type":"VEC3"
		},
		{
			"bufferView":15,
			"componentType":5126,
			"count":354,
			"type":"VEC2"
		},
		{
			"bufferView":16,
			"componentType":5123,
			"count":444,
			"type":"SCALAR"
		},
		{
			"bufferView":17,
			"componentType":5126,
			"count":160,
			"max":[
				18.868152618408203,
				53.45852279663086,
				0.08020570874214172
			],
			"min":[
				-19.173267364501953,
				-43.741493225097656,
				-36.179508209228516
			],
			"type":"VEC3"
		},
		{
			"bufferView":18,
			"componentType":5126,
			"count":160,
			"type":"VEC3"
		},
		{
			"bufferView":19,
			"componentType":5126,
			"count":160,
			"type":"VEC2"
		},
		{
			"bufferView":20,
			"componentType":5123,
			"count":240,
			"type":"SCALAR"
		},
		{
			"bufferView":21,
			"componentType":5126,
			"count":160,
			"max":[
				18.868152618408203,
				53.45852279663086,
				0.08020570874214172
			],
			"min":[
				-19.173267364501953,
				-43.741493225097656,
				-36.179508209228516
			],
			"type":"VEC3"
		},
		{
			"bufferView":22,
			"componentType":5126,
			"count":160,
			"type":"VEC3"
		},
		{
			"bufferView":23,
			"componentType":5126,
			"count":160,
			"type":"VEC2"
		},
		{
			"bufferView":24,
			"componentType":5126,
			"count":160,
			"type":"VEC4"
		},
		{
			"bufferView":25,
			"componentType":5126,
			"count":72,
			"max":[
				0.891767680644989,
				13.835371971130371,
				0.9485001564025879
			],
			"min":[
				-0.7506421208381653,
				-1.6725666522979736,
				-0.8667672276496887
			],
			"type":"VEC3"
		},
		{
			"bufferView":26,
			"componentType":5126,
			"count":72,
			"type":"VEC3"
		},
		{
			"bufferView":27,
			"componentType":5126,
			"count":72,
			"type":"VEC2"
		},
		{
			"bufferView":28,
			"componentType":5123,
			"count":102,
			"type":"SCALAR"
		},
		{
			"bufferView":29,
			"componentType":5126,
			"count":228,
			"max":[
				1.9752013683319092,
				13.835371971130371,
				7.588736534118652
			],
			"min":[
				-1.7296582460403442,
				-1.6725666522979736,
				-5.939418792724609
			],
			"type":"VEC3"
		},
		{
			"bufferView":30,
			"componentType":5126,
			"count":228,
			"type":"VEC3"
		},
		{
			"bufferView":31,
			"componentType":5126,
			"count":228,
			"type":"VEC2"
		},
		{
			"bufferView":32,
			"componentType":5123,
			"count":312,
			"type":"SCALAR"
		}
	],
	"bufferViews":[
		{
			"buffer":0,
			"byteLength":864,
			"byteOffset":0,
			"target":34962
		},
		{
			"buffer":0,
			"byteLength":864,
			"byteOffset":864,
			"target":34962
		},
		{
			"buffer":0,
			"byteLength":576,
			"byteOffset":1728,
			"target":34962
		},
		{
			"buffer":0,
			"byteLength":240,
			"byteOffset":2304,
			"target":34963
		},
		{
			"buffer":0,
			"byteLength":192,
			"byteOffset":2544,
			"target":34962
		},
		{
			"buffer":0,
			"byteLength":192,
			"byteOffset":2736,
			"target":34962
		},
		{
			"buffer":0,
			"byteLength":128,
			"byteOffset":2928,
			"target":34962
		},
		{
			"buffer":0,
			"byteLength":48,
			"byteOffset":3056,
			"target":34963
		},
		{
			"buffer":0,
			"byteLength":720,
			"byteOffset":3104,
			"target":34962
		},
		{
			"buffer":0,
			"byteLength":720,
			"byteOffset":3824,
			"target":34962
		},
		{
			"buffer":0,
			"byteLength":480,
			"byteOffset":4544,
			"target":34962
		},
		{
			"buffer":0,
			"byteLength":960,
			"byteOffset":5024,
			"target":34962
		},
		{
			"buffer":0,
			"byteLength":216,
			"byteOffset":5984,
			"target":34963
		},
		{
			"buffer":0,
			"byteLength":4248,
			"byteOffset":6200,
			"target":34962
		},
		{
			"buffer":0,
			"byteLength":4248,
			"byteOffset":10448,
			"target":34962
		},
		{
			"buffer":0,
			"byteLength":2832,
			"byteOffset":14696,
			"target":34962
		},
		{
			"buffer":0,
			"byteLength":888,
			"byteOffset":17528,
			"target":34963
		},
		{
			"buffer":0,
			"byteLength":1920,
			"byteOffset":18416,
			"target":34962
		},
		{
			"buffer":0,
			"byteLength":1920,
			"byteOffset":20336,
			"target":34962
		},
		{
			"buffer":0,
			"byteLength":1280,
			"byteOffset":22256,
			"target":34962
		},
		{
			"buffer":0,
			"byteLength":480,
			"byteOffset":23536,
			"target":34963
		},
		{
			"buffer":0,
			"byteLength":1920,
			"byteOffset":24016,
			"target":34962
		},
		{
			"buffer":0,
			"byteLength":1920,
			"byteOffset":25936,
			"target":34962
		},
		{
			"buffer":0,
			"byteLength":1280,
			"byteOffset":27856,
			"target":34962
		},
		{
			"buffer":0,
			"byteLength":2560,
			"byteOffset":29136,
			"target":34962
		},
		{
			"buffer":0,
			"byteLength":864,
			"byteOffset":31696,
			"target":34962
		},
		{
			"buffer":0,
			"byteLength":864,
			"byteOffset":32560,
			"target":34962
		},
		{
			"buffer":0,
			"byteLength":576,
			"byteOffset":33424,
			"target":34962
		},
		{
			"buffer":0,
			"byteLength":204,
			"byteOffset":34000,
			"target":34963
		},
		{
			"buffer":0,
			"byteLength":2736,
			"byteOffset":34204,
			"target":34962
		},
		{
			"buffer":0,
			"byteLength":2736,
			"byteOffset":36940,
			"target":34962
		},
		{
			"buffer":0,
			"byteLength":1824,
			"byteOffset":39676,
			"target":34962
		},
		{
			"buffer":0,
			"byteLength":624,
			"byteOffset":41500,
			"target":34963
		}
	],
	"buffers":[
		{
			"byteLength":42124,
			"uri":"TrenchPack-6530890e364110e82d2baf2cfa9984ff.bin"
		}
	]
}
