{
	"asset":{
		"generator":"Khronos glTF Blender I/O v4.1.62",
		"version":"2.0"
	},
	"scene":0,
	"scenes":[
		{
			"name":"Scene",
			"nodes":[
				2
			]
		}
	],
	"nodes":[
		{
			"mesh":0,
			"name":"V-Turret7.7-Barrel",
			"rotation":[
				0,
				0.7071068286895752,
				-0.7071068286895752,
				5.338507236274381e-08
			],
			"scale":[
				6.35568904876709,
				6.35568904876709,
				6.35568904876709
			],
			"translation":[
				0,
				0.4503825604915619,
				-0.39164456725120544
			]
		},
		{
			"children":[
				0
			],
			"mesh":1,
			"name":"V-Turret7.7-YAxis",
			"rotation":[
				0.7071068286895752,
				0,
				0,
				0.7071068286895752
			],
			"scale":[
				0.15733934938907623,
				0.15733934938907623,
				0.15733934938907623
			],
			"translation":[
				0,
				-0.09178553521633148,
				-0.33522918820381165
			]
		},
		{
			"children":[
				1
			],
			"mesh":2,
			"name":"Turret7.7",
			"rotation":[
				0,
				-1,
				0,
				7.549790126404332e-08
			],
			"translation":[
				0,
				0.03016442060470581,
				-0.2643662989139557
			]
		}
	],
	"materials":[
		{
			"doubleSided":true,
			"emissiveFactor":[
				1,
				1,
				1
			],
			"name":"Turret",
			"pbrMetallicRoughness":{
				"baseColorFactor":[
					0,
					0,
					0,
					1
				]
			}
		}
	],
	"meshes":[
		{
			"name":"Circle.018",
			"primitives":[
				{
					"attributes":{
						"POSITION":0,
						"NORMAL":1,
						"TEXCOORD_0":2,
						"TANGENT":3
					},
					"indices":4,
					"material":0
				}
			]
		},
		{
			"name":"Circle.016",
			"primitives":[
				{
					"attributes":{
						"POSITION":5,
						"NORMAL":6,
						"TEXCOORD_0":7
					},
					"indices":8,
					"material":0
				}
			]
		},
		{
			"name":"Base",
			"primitives":[
				{
					"attributes":{
						"POSITION":9,
						"NORMAL":10,
						"TEXCOORD_0":11,
						"TANGENT":12
					},
					"indices":13,
					"material":0
				}
			]
		}
	],
	"accessors":[
		{
			"bufferView":0,
			"componentType":5126,
			"count":45,
			"max":[
				0.07343852519989014,
				0.015595728531479836,
				1.2717418670654297
			],
			"min":[
				-0.0734376311302185,
				-0.12409193813800812,
				0.25546151399612427
			],
			"type":"VEC3"
		},
		{
			"bufferView":1,
			"componentType":5126,
			"count":45,
			"type":"VEC3"
		},
		{
			"bufferView":2,
			"componentType":5126,
			"count":45,
			"type":"VEC2"
		},
		{
			"bufferView":3,
			"componentType":5126,
			"count":45,
			"type":"VEC4"
		},
		{
			"bufferView":4,
			"componentType":5123,
			"count":69,
			"type":"SCALAR"
		},
		{
			"bufferView":5,
			"componentType":5126,
			"count":51,
			"max":[
				0.9171263575553894,
				1.013969898223877,
				2.0999999046325684
			],
			"min":[
				-0.9171263575553894,
				-1.1732513904571533,
				-2.1000001430511475
			],
			"type":"VEC3"
		},
		{
			"bufferView":6,
			"componentType":5126,
			"count":51,
			"type":"VEC3"
		},
		{
			"bufferView":7,
			"componentType":5126,
			"count":51,
			"type":"VEC2"
		},
		{
			"bufferView":8,
			"componentType":5123,
			"count":81,
			"type":"SCALAR"
		},
		{
			"bufferView":9,
			"componentType":5126,
			"count":76,
			"max":[
				0.4230456054210663,
				0.6360104084014893,
				0.17523106932640076
			],
			"min":[
				-0.4230456054210663,
				-0.6360104084014893,
				-0.4230455756187439
			],
			"type":"VEC3"
		},
		{
			"bufferView":10,
			"componentType":5126,
			"count":76,
			"type":"VEC3"
		},
		{
			"bufferView":11,
			"componentType":5126,
			"count":76,
			"type":"VEC2"
		},
		{
			"bufferView":12,
			"componentType":5126,
			"count":76,
			"type":"VEC4"
		},
		{
			"bufferView":13,
			"componentType":5123,
			"count":126,
			"type":"SCALAR"
		}
	],
	"bufferViews":[
		{
			"buffer":0,
			"byteLength":540,
			"byteOffset":0,
			"target":34962
		},
		{
			"buffer":0,
			"byteLength":540,
			"byteOffset":540,
			"target":34962
		},
		{
			"buffer":0,
			"byteLength":360,
			"byteOffset":1080,
			"target":34962
		},
		{
			"buffer":0,
			"byteLength":720,
			"byteOffset":1440,
			"target":34962
		},
		{
			"buffer":0,
			"byteLength":138,
			"byteOffset":2160,
			"target":34963
		},
		{
			"buffer":0,
			"byteLength":612,
			"byteOffset":2300,
			"target":34962
		},
		{
			"buffer":0,
			"byteLength":612,
			"byteOffset":2912,
			"target":34962
		},
		{
			"buffer":0,
			"byteLength":408,
			"byteOffset":3524,
			"target":34962
		},
		{
			"buffer":0,
			"byteLength":162,
			"byteOffset":3932,
			"target":34963
		},
		{
			"buffer":0,
			"byteLength":912,
			"byteOffset":4096,
			"target":34962
		},
		{
			"buffer":0,
			"byteLength":912,
			"byteOffset":5008,
			"target":34962
		},
		{
			"buffer":0,
			"byteLength":608,
			"byteOffset":5920,
			"target":34962
		},
		{
			"buffer":0,
			"byteLength":1216,
			"byteOffset":6528,
			"target":34962
		},
		{
			"buffer":0,
			"byteLength":252,
			"byteOffset":7744,
			"target":34963
		}
	],
	"buffers":[
		{
			"byteLength":7996,
			"uri":"Turret7.7-bed02b280275c9179f0aa6fad3a471e1.bin"
		}
	]
}
