{
	"asset":{
		"generator":"Khronos glTF Blender I/O v4.1.62",
		"version":"2.0"
	},
	"scene":0,
	"scenes":[
		{
			"name":"Scene",
			"nodes":[
				0,
				1,
				2,
				3,
				4
			]
		}
	],
	"nodes":[
		{
			"mesh":0,
			"name":"USPBody",
			"translation":[
				-0.09844496846199036,
				1.4504226446151733,
				0
			]
		},
		{
			"mesh":1,
			"name":"USPSlide",
			"translation":[
				-0.0005927383899688721,
				0,
				0
			]
		},
		{
			"mesh":2,
			"name":"9MM",
			"rotation":[
				0.70710688829422,
				0,
				0,
				0.7071066498756409
			]
		},
		{
			"mesh":3,
			"name":"USPTrigger&Hammer",
			"rotation":[
				0.70710688829422,
				0,
				0,
				0.7071066498756409
			],
			"translation":[
				0.7656876444816589,
				0.41565901041030884,
				0
			]
		},
		{
			"mesh":4,
			"name":"USPMag"
		}
	],
	"materials":[
		{
			"doubleSided":true,
			"name":"Material.020",
			"pbrMetallicRoughness":{
				"baseColorTexture":{
					"index":0
				},
				"metallicFactor":0,
				"roughnessFactor":0.5
			}
		},
		{
			"doubleSided":true,
			"name":"Material.019",
			"pbrMetallicRoughness":{
				"baseColorTexture":{
					"index":1
				},
				"metallicFactor":0,
				"roughnessFactor":0.5
			}
		},
		{
			"doubleSided":true,
			"name":"Material.026",
			"pbrMetallicRoughness":{
				"baseColorTexture":{
					"index":2
				},
				"metallicFactor":0,
				"roughnessFactor":0.5
			}
		},
		{
			"doubleSided":true,
			"name":"Material.027",
			"pbrMetallicRoughness":{
				"baseColorTexture":{
					"index":3
				},
				"metallicFactor":0,
				"roughnessFactor":0.5
			}
		}
	],
	"meshes":[
		{
			"name":"Cube.001",
			"primitives":[
				{
					"attributes":{
						"POSITION":0,
						"NORMAL":1,
						"TEXCOORD_0":2
					},
					"indices":3,
					"material":0
				}
			]
		},
		{
			"name":"Cube.002",
			"primitives":[
				{
					"attributes":{
						"POSITION":4,
						"NORMAL":5,
						"TEXCOORD_0":6
					},
					"indices":7,
					"material":0
				}
			]
		},
		{
			"name":"9MM.003",
			"primitives":[
				{
					"attributes":{
						"POSITION":8,
						"NORMAL":9,
						"TEXCOORD_0":10,
						"TANGENT":11
					},
					"indices":12,
					"material":1
				}
			]
		},
		{
			"name":"Plane.001",
			"primitives":[
				{
					"attributes":{
						"POSITION":13,
						"NORMAL":14,
						"TEXCOORD_0":15,
						"TANGENT":16
					},
					"indices":17,
					"material":2
				}
			]
		},
		{
			"name":"Cube.003",
			"primitives":[
				{
					"attributes":{
						"POSITION":18,
						"NORMAL":19,
						"TEXCOORD_0":20
					},
					"indices":21,
					"material":3
				}
			]
		}
	],
	"textures":[
		{
			"sampler":0,
			"source":0
		},
		{
			"sampler":0,
			"source":1
		},
		{
			"sampler":0,
			"source":0
		},
		{
			"sampler":0,
			"source":2
		}
	],
	"images":[
		{
			"mimeType":"image/jpeg",
			"name":"USP_Text.jpg.001",
			"uri":"../../GameResources/Textures/Guns/USP/USP_Text.jpg"
		},
		{
			"mimeType":"image/jpeg",
			"name":"9mm.jpg",
			"uri":"../../GameResources/Textures/Guns/USP/9mm.jpg"
		},
		{
			"mimeType":"image/jpeg",
			"name":"USP_mag_Text.jpg.001",
			"uri":"../../GameResources/Textures/Guns/USP/USP_mag_Text.jpg"
		}
	],
	"accessors":[
		{
			"bufferView":0,
			"componentType":5126,
			"count":205,
			"max":[
				1.1011433601379395,
				0.28440046310424805,
				0.1276727169752121
			],
			"min":[
				-1.0091718435287476,
				-1.0374521017074585,
				-0.1276727169752121
			],
			"type":"VEC3"
		},
		{
			"bufferView":1,
			"componentType":5126,
			"count":205,
			"type":"VEC3"
		},
		{
			"bufferView":2,
			"componentType":5126,
			"count":205,
			"type":"VEC2"
		},
		{
			"bufferView":3,
			"componentType":5123,
			"count":375,
			"type":"SCALAR"
		},
		{
			"bufferView":4,
			"componentType":5126,
			"count":214,
			"max":[
				0.8455135822296143,
				1.7792677879333496,
				0.12669627368450165
			],
			"min":[
				-1.0242908000946045,
				1.3568787574768066,
				-0.12669627368450165
			],
			"type":"VEC3"
		},
		{
			"bufferView":5,
			"componentType":5126,
			"count":214,
			"type":"VEC3"
		},
		{
			"bufferView":6,
			"componentType":5126,
			"count":214,
			"type":"VEC2"
		},
		{
			"bufferView":7,
			"componentType":5123,
			"count":408,
			"type":"SCALAR"
		},
		{
			"bufferView":8,
			"componentType":5126,
			"count":40,
			"max":[
				0.4675770103931427,
				0.04527600109577179,
				-0.9965710043907166
			],
			"min":[
				0.3770250082015991,
				-0.04527600109577179,
				-1.2659339904785156
			],
			"type":"VEC3"
		},
		{
			"bufferView":9,
			"componentType":5126,
			"count":40,
			"type":"VEC3"
		},
		{
			"bufferView":10,
			"componentType":5126,
			"count":40,
			"type":"VEC2"
		},
		{
			"bufferView":11,
			"componentType":5126,
			"count":40,
			"type":"VEC4"
		},
		{
			"bufferView":12,
			"componentType":5123,
			"count":60,
			"type":"SCALAR"
		},
		{
			"bufferView":13,
			"componentType":5126,
			"count":38,
			"max":[
				-0.8539496064186096,
				0.028917865827679634,
				-0.6797398328781128
			],
			"min":[
				-1.806289792060852,
				-0.028053952381014824,
				-1.2921267747879028
			],
			"type":"VEC3"
		},
		{
			"bufferView":14,
			"componentType":5126,
			"count":38,
			"type":"VEC3"
		},
		{
			"bufferView":15,
			"componentType":5126,
			"count":38,
			"type":"VEC2"
		},
		{
			"bufferView":16,
			"componentType":5126,
			"count":38,
			"type":"VEC4"
		},
		{
			"bufferView":17,
			"componentType":5123,
			"count":66,
			"type":"SCALAR"
		},
		{
			"bufferView":18,
			"componentType":5126,
			"count":88,
			"max":[
				-0.33906400203704834,
				1.5587458610534668,
				0.12492841482162476
			],
			"min":[
				-1.0147908926010132,
				0.34018442034721375,
				-0.12492841482162476
			],
			"type":"VEC3"
		},
		{
			"bufferView":19,
			"componentType":5126,
			"count":88,
			"type":"VEC3"
		},
		{
			"bufferView":20,
			"componentType":5126,
			"count":88,
			"type":"VEC2"
		},
		{
			"bufferView":21,
			"componentType":5123,
			"count":138,
			"type":"SCALAR"
		}
	],
	"bufferViews":[
		{
			"buffer":0,
			"byteLength":2460,
			"byteOffset":0,
			"target":34962
		},
		{
			"buffer":0,
			"byteLength":2460,
			"byteOffset":2460,
			"target":34962
		},
		{
			"buffer":0,
			"byteLength":1640,
			"byteOffset":4920,
			"target":34962
		},
		{
			"buffer":0,
			"byteLength":750,
			"byteOffset":6560,
			"target":34963
		},
		{
			"buffer":0,
			"byteLength":2568,
			"byteOffset":7312,
			"target":34962
		},
		{
			"buffer":0,
			"byteLength":2568,
			"byteOffset":9880,
			"target":34962
		},
		{
			"buffer":0,
			"byteLength":1712,
			"byteOffset":12448,
			"target":34962
		},
		{
			"buffer":0,
			"byteLength":816,
			"byteOffset":14160,
			"target":34963
		},
		{
			"buffer":0,
			"byteLength":480,
			"byteOffset":14976,
			"target":34962
		},
		{
			"buffer":0,
			"byteLength":480,
			"byteOffset":15456,
			"target":34962
		},
		{
			"buffer":0,
			"byteLength":320,
			"byteOffset":15936,
			"target":34962
		},
		{
			"buffer":0,
			"byteLength":640,
			"byteOffset":16256,
			"target":34962
		},
		{
			"buffer":0,
			"byteLength":120,
			"byteOffset":16896,
			"target":34963
		},
		{
			"buffer":0,
			"byteLength":456,
			"byteOffset":17016,
			"target":34962
		},
		{
			"buffer":0,
			"byteLength":456,
			"byteOffset":17472,
			"target":34962
		},
		{
			"buffer":0,
			"byteLength":304,
			"byteOffset":17928,
			"target":34962
		},
		{
			"buffer":0,
			"byteLength":608,
			"byteOffset":18232,
			"target":34962
		},
		{
			"buffer":0,
			"byteLength":132,
			"byteOffset":18840,
			"target":34963
		},
		{
			"buffer":0,
			"byteLength":1056,
			"byteOffset":18972,
			"target":34962
		},
		{
			"buffer":0,
			"byteLength":1056,
			"byteOffset":20028,
			"target":34962
		},
		{
			"buffer":0,
			"byteLength":704,
			"byteOffset":21084,
			"target":34962
		},
		{
			"buffer":0,
			"byteLength":276,
			"byteOffset":21788,
			"target":34963
		}
	],
	"samplers":[
		{
			"magFilter":9729,
			"minFilter":9987
		}
	],
	"buffers":[
		{
			"byteLength":22064,
			"uri":"USP-077ae5db44899475434ee4f8274fcbe4.bin"
		}
	]
}
